<svg width="137" height="67" viewBox="0 0 137 67" fill="none" xmlns="http://www.w3.org/2000/svg">
<g clip-path="url(#clip0_7177_26059)">
<path d="M84.7474 45.0292C76.8629 50.8407 65.4348 53.9413 55.5954 53.9413C41.799 53.9413 29.3787 48.8386 19.9823 40.3517C19.2441 39.6843 19.9055 38.7747 20.7914 39.2945C30.932 45.1946 43.4704 48.7441 56.4223 48.7441C65.1572 48.7441 74.7663 46.9368 83.6017 43.1865C84.9364 42.6195 86.0526 44.0606 84.7474 45.0292Z" fill="#FF9900"/>
<path d="M88.0207 41.283C87.0167 39.9954 81.3588 40.6746 78.8192 40.9758C78.0455 41.0703 77.9274 40.3971 78.6243 39.9128C83.1306 36.7412 90.5249 37.6567 91.3872 38.7198C92.2494 39.7887 91.1627 47.2008 86.9281 50.7384C86.2785 51.2818 85.6583 50.9924 85.9477 50.2719C86.8986 47.8977 89.0307 42.5764 88.0207 41.283Z" fill="#FF9900"/>
<path d="M78.9964 17.5188V14.4358C78.9964 13.9693 79.3508 13.6562 79.776 13.6562H93.5783C94.0213 13.6562 94.3756 13.9752 94.3756 14.4358V17.0758C94.3697 17.5188 93.9977 18.0976 93.3362 19.013L86.184 29.2244C88.8417 29.1595 91.6471 29.5552 94.0567 30.9136C94.6001 31.2207 94.7477 31.6695 94.7891 32.1125V35.4021C94.7891 35.851 94.293 36.3766 93.7732 36.1049C89.5268 33.8784 83.8866 33.6362 79.1913 36.1286C78.7129 36.3884 78.2109 35.8687 78.2109 35.4198V32.2956C78.2109 31.7936 78.2168 30.9372 78.7189 30.1753L87.005 18.2925H79.7937C79.3508 18.2925 78.9964 17.9794 78.9964 17.5188Z" fill="white"/>
<path d="M28.6523 36.7597H24.4532C24.0516 36.7301 23.7327 36.4289 23.7031 36.045V14.4941C23.7031 14.0629 24.0634 13.7204 24.5122 13.7204H28.4279C28.8354 13.7381 29.1603 14.0511 29.1898 14.4409V17.2581H29.2666C30.2883 14.5354 32.2078 13.2656 34.7946 13.2656C37.4227 13.2656 39.0646 14.5354 40.2458 17.2581C41.2616 14.5354 43.5709 13.2656 46.0455 13.2656C47.8055 13.2656 49.7308 13.9921 50.9061 15.6221C52.235 17.4353 51.9633 20.0693 51.9633 22.3786L51.9574 35.9801C51.9574 36.4112 51.5971 36.7597 51.1483 36.7597H46.955C46.5357 36.7301 46.1991 36.3935 46.1991 35.9801V24.5579C46.1991 23.6484 46.2817 21.3805 46.0809 20.5182C45.7679 19.0712 44.8289 18.6637 43.6122 18.6637C42.5964 18.6637 41.5333 19.3429 41.1022 20.4296C40.671 21.5163 40.7124 23.3353 40.7124 24.5579V35.9801C40.7124 36.4112 40.3521 36.7597 39.9033 36.7597H35.71C35.2848 36.7301 34.954 36.3935 34.954 35.9801L34.9481 24.5579C34.9481 22.1541 35.3438 18.6165 32.3613 18.6165C29.3433 18.6165 29.4615 22.0656 29.4615 24.5579V35.9801C29.4615 36.4112 29.1012 36.7597 28.6523 36.7597Z" fill="white"/>
<path d="M106.262 13.2656C112.493 13.2656 115.865 18.6165 115.865 25.4202C115.865 31.9935 112.139 37.2085 106.262 37.2085C100.143 37.2085 96.8125 31.8577 96.8125 25.1898C96.8125 18.4806 100.185 13.2656 106.262 13.2656ZM106.298 17.6656C103.203 17.6656 103.008 21.8825 103.008 24.5106C103.008 27.1447 102.967 32.7672 106.262 32.7672C109.516 32.7672 109.67 28.2314 109.67 25.4674C109.67 23.6484 109.593 21.475 109.044 19.7504C108.571 18.2503 107.632 17.6656 106.298 17.6656Z" fill="white"/>
<path d="M123.943 36.7597H119.762C119.343 36.7301 119.006 36.3935 119.006 35.9801L119 14.4232C119.035 14.0275 119.384 13.7204 119.809 13.7204H123.701C124.067 13.7381 124.369 13.9862 124.451 14.3228V17.6183H124.528C125.703 14.6713 127.351 13.2656 130.251 13.2656C132.135 13.2656 133.972 13.9448 135.153 15.8052C136.251 17.5298 136.251 20.4296 136.251 22.5144V36.0805C136.204 36.4585 135.856 36.7597 135.442 36.7597H131.231C130.847 36.7301 130.528 36.4466 130.487 36.0805V24.3748C130.487 22.0183 130.759 18.5692 127.859 18.5692C126.837 18.5692 125.898 19.2543 125.432 20.2938C124.841 21.6108 124.764 22.9219 124.764 24.3748V35.9801C124.758 36.4112 124.392 36.7597 123.943 36.7597Z" fill="white"/>
<path d="M67.9981 26.4613V25.5518C64.9624 25.5518 61.7554 26.2014 61.7554 29.7805C61.7554 31.5936 62.6945 32.822 64.3068 32.822C65.488 32.822 66.5452 32.0956 67.2126 30.9144C68.0394 29.4615 67.9981 28.0972 67.9981 26.4613ZM72.2327 36.6964C71.9551 36.9444 71.5535 36.9621 71.2404 36.7968C69.8466 35.6392 69.5986 35.1018 68.8308 33.9973C66.5275 36.3479 64.8974 37.0507 61.909 37.0507C58.3772 37.0507 55.625 34.8714 55.625 30.5069C55.625 27.0991 57.4736 24.7781 60.1017 23.6441C62.3815 22.6401 65.5648 22.4629 67.9981 22.1854V21.642C67.9981 20.6439 68.0748 19.4627 67.4901 18.6004C66.9763 17.8267 65.9959 17.5078 65.1336 17.5078C63.5331 17.5078 62.1039 18.3287 61.7554 20.0297C61.6845 20.4076 61.407 20.7797 61.029 20.7974L56.9538 20.3604C56.6113 20.2836 56.2333 20.006 56.3278 19.4804C57.2669 14.543 61.7259 13.0547 65.7183 13.0547C67.7618 13.0547 70.4313 13.598 72.0437 15.1454C74.0871 17.053 73.8922 19.5985 73.8922 22.3684V28.9123C73.8922 30.879 74.7073 31.7412 75.475 32.8043C75.7467 33.1823 75.8058 33.6371 75.4632 33.9206C74.6069 34.6352 73.0831 35.964 72.2445 36.7082L72.2327 36.6964Z" fill="white"/>
<path d="M12.9434 26.4613V25.5518C9.90768 25.5518 6.70073 26.2014 6.70073 29.7805C6.70073 31.5936 7.63978 32.822 9.25212 32.822C10.4333 32.822 11.4905 32.0956 12.1579 30.9144C12.9847 29.4615 12.9434 28.0972 12.9434 26.4613ZM17.178 36.6964C16.9004 36.9444 16.4988 36.9621 16.1858 36.7968C14.7919 35.6392 14.5439 35.1018 13.7761 33.9973C11.4728 36.3479 9.84272 37.0507 6.85429 37.0507C3.3225 37.0507 0.570312 34.8714 0.570312 30.5069C0.570312 27.0991 2.41889 24.7781 5.04705 23.6441C7.32677 22.6401 10.5101 22.4629 12.9434 22.1854V21.642C12.9434 20.6439 13.0201 19.4627 12.4355 18.6004C11.9216 17.8267 10.9412 17.5078 10.079 17.5078C8.47844 17.5078 7.04918 18.3287 6.70073 20.0297C6.62986 20.4076 6.35228 20.7797 5.9743 20.7974L1.89916 20.3604C1.55661 20.2836 1.17863 20.006 1.27312 19.4804C2.21218 14.543 6.6712 13.0547 10.6637 13.0547C12.7071 13.0547 15.3766 13.598 16.989 15.1454C19.0324 17.053 18.8375 19.5985 18.8375 22.3684V28.9123C18.8375 30.879 19.6526 31.7412 20.4204 32.8043C20.692 33.1823 20.7511 33.6371 20.4085 33.9206C19.5522 34.6352 18.0284 35.964 17.1898 36.7082L17.178 36.6964Z" fill="white"/>
</g>
<defs>
<clipPath id="clip0_7177_26059">
<rect width="135.841" height="41" fill="white" transform="translate(0.492188 13)"/>
</clipPath>
</defs>
</svg>
