<svg width="167" height="67" viewBox="0 0 167 67" fill="none" xmlns="http://www.w3.org/2000/svg">
<path d="M51.0818 16C46.8493 16.2636 45.013 18.2987 43.635 19.7442C42.1584 21.287 41.3376 24.5364 41.3376 24.5364V16.0662H24.8363C23.5896 16.0662 22.4078 16.5909 21.5221 17.839C20.6039 19.0545 16.8311 25.2922 16.8311 25.2922H82.0857V16H51.0818ZM133.232 16C129.034 16.2636 127.164 18.2987 125.786 19.7442C124.309 21.287 123.488 24.5364 123.488 24.5364V25.2922H166.401V16H133.232ZM83.6922 16.0338V25.2922H92.9779V16.0338H83.6922ZM114.139 16.0338V25.2922H123.39V16.0338H114.139ZM16.4363 25.8506L0.492188 50.9351H11.3844L26.7389 26.9662L16.4363 25.8506ZM83.7909 25.9818V39.4883C83.7766 39.2117 83.7584 38.8195 83.7584 38.8195C83.5285 37.4403 80.9039 31.3338 75.261 30.8078C71.8818 30.4792 41.7974 28.0831 41.7974 28.0831C42.3883 31.1039 43.7337 32.6468 44.6519 33.5C46.7519 35.5026 50.0649 36.0948 50.0649 36.0948C50.8519 36.1597 73.2597 38.0312 73.2597 38.0312C73.9818 38.0636 75.3272 38.261 75.2948 40.0338C75.2948 40.2636 75.0974 41.8078 73.3909 41.8078H40.9441V28.0169L31.9221 27.361C31.8896 27.361 31.8896 50.9351 31.8896 50.9351H75.261C82.8065 49.4247 83.5948 42.5299 83.5948 42.5299C83.7272 41.7766 83.7727 41.113 83.7909 40.5247V42.4312C85.2675 50.3104 92.387 50.9351 92.387 50.9351C92.387 50.9351 93.1091 50.9675 93.2402 51H114.401C114.401 51 123.456 50.2779 123.456 41.5442L123.39 28.6416L114.27 28.0831V38.8195C114.27 38.8195 114.236 41.9052 111.252 41.9052H95.635C95.635 41.9052 92.9779 41.6753 92.9779 38.8519V26.639L83.7909 25.9818ZM124.047 28.6416C124.932 31.7597 126.147 32.713 127.065 33.5662C129.165 35.6013 132.28 36.061 132.28 36.061C133.069 36.1273 155.706 38.0312 155.706 38.0312C156.427 38.0636 157.904 38.1299 157.904 39.9026C157.904 40.4286 157.642 40.987 157.313 41.2818C157.313 41.2818 156.526 41.7091 155.771 41.7091H123.555L123.456 51H156.657C164.991 50.5078 166.171 42.5948 166.171 42.5948C166.466 40.5273 166.238 38.8195 166.238 38.8195C166.008 36.9481 163.351 31.3 157.674 30.7429C154.329 30.4143 124.047 28.6416 124.047 28.6416Z" fill="white"/>
</svg>
