<svg width="283" height="67" viewBox="0 0 283 67" fill="none" xmlns="http://www.w3.org/2000/svg">
<g clip-path="url(#clip0_7177_26062)">
<path d="M10.4827 31.9646C10.38 31.83 10.2443 31.7243 10.0887 31.6576C9.93317 31.5909 9.76301 31.5655 9.59475 31.584C9.42649 31.6024 9.26584 31.6639 9.12836 31.7626C8.99088 31.8614 8.88124 31.9939 8.81005 32.1475L0.326438 49.1147C0.248947 49.2692 0.212207 49.4409 0.219705 49.6135C0.227204 49.7861 0.278692 49.954 0.369283 50.1011C0.459874 50.2483 0.586564 50.3698 0.737329 50.4543C0.888094 50.5387 1.05793 50.5832 1.23073 50.5835H13.044C13.2352 50.5872 13.4233 50.5347 13.585 50.4325C13.7467 50.3303 13.8748 50.1829 13.9535 50.0086C16.4991 44.7814 14.9571 36.7474 10.4827 31.9646Z" fill="url(#paint0_linear_7177_26062)"/>
<path d="M16.7092 16.5429C14.5944 19.7963 13.3619 23.5438 13.1328 27.4175C12.9037 31.2911 13.6858 35.1578 15.4025 38.6379L21.1261 49.9964C21.2096 50.1652 21.3384 50.3074 21.4981 50.4071C21.6578 50.5068 21.8422 50.5601 22.0304 50.5609H33.8437C34.0093 50.5473 34.1693 50.4943 34.3103 50.4065C34.4514 50.3187 34.5694 50.1985 34.6548 50.056C34.7401 49.9134 34.7902 49.7525 34.801 49.5867C34.8118 49.4209 34.7828 49.255 34.7166 49.1026L18.4342 16.5429C18.3562 16.3803 18.2339 16.2431 18.0813 16.147C17.9287 16.051 17.752 16 17.5717 16C17.3914 16 17.2148 16.051 17.0622 16.147C16.9096 16.2431 16.7872 16.3803 16.7092 16.5429Z" fill="#2684FF"/>
<path d="M266.284 34.6309L274.861 50.5736H282.482V22.1172H276.419V40.48L274.124 35.1536L267.235 22.1172H257.664V50.5736H263.728V28.8706L266.284 34.6309Z" fill="#0052CC"/>
<path d="M219.097 22.1172H212.469V50.5736H219.097V22.1172Z" fill="#0052CC"/>
<path d="M204.817 42.1659C204.817 37.1844 202.177 34.8479 194.723 33.2432C190.609 32.3337 189.616 31.4242 189.616 30.1069C189.616 28.4604 191.085 27.7652 193.798 27.7652C197.091 27.7652 200.342 28.7636 203.416 30.1487V23.641C200.464 22.2971 197.249 21.6309 194.007 21.6913C186.642 21.6913 182.831 24.8955 182.831 30.1383C182.831 34.32 184.781 37.6706 192.402 39.1446C196.95 40.0959 197.906 40.833 197.906 42.3488C197.906 43.8647 196.95 44.7742 193.725 44.7742C189.853 44.7035 186.06 43.6783 182.68 41.7895V48.6318C184.974 49.7556 188.006 51.0102 193.657 51.0102C201.623 51.0102 204.785 47.4609 204.785 42.1763" fill="#0052CC"/>
<path d="M177.236 42.1659C177.236 37.1844 174.622 34.8479 167.147 33.2432C163.034 32.3337 162.035 31.4242 162.035 30.1069C162.035 28.4604 163.509 27.7652 166.217 27.7652C169.51 27.7652 172.756 28.7636 175.83 30.1487V23.641C172.878 22.2971 169.663 21.6309 166.421 21.6913C159.061 21.6913 155.245 24.8955 155.245 30.1383C155.245 34.32 157.195 37.6706 164.821 39.1446C169.369 40.0959 170.32 40.833 170.32 42.3488C170.32 43.8647 169.369 44.7742 166.139 44.7742C162.267 44.7035 158.474 43.6783 155.094 41.7895V48.6318C157.394 49.7556 160.425 51.0102 166.071 51.0102C174.042 51.0102 177.199 47.4609 177.199 42.1763" fill="#0052CC"/>
<path d="M110.467 44.4213V22.1172H103.797V50.5736H117.419L119.562 44.4213H110.467Z" fill="#0052CC"/>
<path d="M90.9176 50.5736V28.2643H98.8001V22.1172H76.8828V28.2643H84.2478V50.5736H90.9176Z" fill="#0052CC"/>
<path d="M67.2181 22.1172H58.4784L48.5469 50.5736H56.1523L57.5637 45.7803C61.0274 46.7982 64.7109 46.7982 68.1747 45.7803L69.5808 50.5736H77.1601L67.2181 22.1172ZM62.8483 40.6525C61.6099 40.6543 60.3776 40.4783 59.1893 40.1298L62.8483 27.7102L66.5072 40.1298C65.3188 40.4779 64.0866 40.654 62.8483 40.6525Z" fill="#0052CC"/>
<path d="M140.898 22.1172H132.158L122.227 50.5736H129.806L131.217 45.7803C134.681 46.7982 138.364 46.7982 141.828 45.7803L143.234 50.5736H150.814L140.898 22.1172ZM136.528 40.6525C135.29 40.6548 134.057 40.4787 132.869 40.1298L136.528 27.7102L140.187 40.1298C138.999 40.4788 137.766 40.6548 136.528 40.6525Z" fill="#0052CC"/>
<path d="M242.976 22.1172H234.236L224.305 50.5736H231.884L233.29 45.7803C236.754 46.7982 240.437 46.7982 243.901 45.7803L245.307 50.5736H252.892L242.976 22.1172ZM238.606 40.6525C237.368 40.654 236.136 40.4779 234.947 40.1298L238.606 27.7102L242.265 40.1298C241.077 40.4779 239.844 40.654 238.606 40.6525Z" fill="#0052CC"/>
</g>
<defs>
<linearGradient id="paint0_linear_7177_26062" x1="15.1349" y1="34.5833" x2="6.18081" y2="50.0974" gradientUnits="userSpaceOnUse">
<stop stop-color="#0052CC"/>
<stop offset="0.92" stop-color="#2684FF"/>
</linearGradient>
<clipPath id="clip0_7177_26062">
<rect width="282.262" height="35" fill="white" transform="translate(0.21875 16)"/>
</clipPath>
</defs>
</svg>
