<svg width="136" height="67" viewBox="0 0 136 67" fill="none" xmlns="http://www.w3.org/2000/svg">
<g clip-path="url(#clip0_8268_18600)">
<path d="M126.735 25.2893L119.262 23.5506L117.927 23.0156L83.6328 23.2831V39.8676L126.735 40.0013V25.2893Z" fill="white"/>
<path d="M112.714 38.3935C112.929 37.8239 113.005 37.211 112.935 36.6061C112.866 36.0012 112.653 35.4218 112.314 34.9161C111.966 34.4983 111.54 34.1533 111.059 33.9009C110.578 33.6484 110.052 33.4935 109.512 33.4449L86.2929 33.1774C86.1595 33.1774 86.026 33.0437 85.8926 33.0437C85.8615 33.0203 85.8363 32.99 85.8189 32.9552C85.8015 32.9204 85.7925 32.882 85.7925 32.843C85.7925 32.8041 85.8015 32.7657 85.8189 32.7309C85.8363 32.6961 85.8615 32.6658 85.8926 32.6424C86.026 32.3749 86.1595 32.2412 86.4263 32.2412L109.779 31.9737C111.261 31.8088 112.673 31.251 113.869 30.3578C115.065 29.4645 116.003 28.268 116.584 26.8914L117.919 23.414C117.919 23.2802 118.052 23.1465 117.919 23.0127C117.193 19.774 115.433 16.8611 112.905 14.7168C110.377 12.5724 107.219 11.3138 103.912 11.1322C100.606 10.9506 97.3299 11.8559 94.5832 13.7106C91.8366 15.5652 89.769 18.2679 88.6948 21.4078C87.3003 20.4096 85.5993 19.936 83.8909 20.0703C82.3231 20.2456 80.8613 20.9501 79.7458 22.0681C78.6303 23.1861 77.9274 24.6512 77.7526 26.2226C77.6637 27.027 77.7088 27.8405 77.886 28.6301C75.3492 28.7003 72.9399 29.7599 71.1705 31.5832C69.4011 33.4066 68.4113 35.8499 68.4116 38.3935C68.3897 38.8877 68.4346 39.3826 68.5451 39.8647C68.5512 39.9691 68.5954 40.0676 68.6691 40.1416C68.7429 40.2155 68.8412 40.2598 68.9454 40.2659H111.78C112.047 40.2659 112.314 40.1322 112.314 39.8647L112.714 38.3935Z" fill="#F48120"/>
<path d="M120.058 23.4219H119.391C119.257 23.4219 119.124 23.5556 118.99 23.6894L118.056 26.8993C117.842 27.4689 117.766 28.0817 117.836 28.6866C117.905 29.2915 118.118 29.871 118.457 30.3766C118.804 30.7944 119.231 31.1394 119.712 31.3919C120.192 31.6443 120.718 31.7993 121.259 31.8478L126.196 32.1153C126.33 32.1153 126.463 32.2491 126.597 32.2491C126.628 32.2724 126.653 32.3027 126.67 32.3375C126.688 32.3724 126.697 32.4108 126.697 32.4497C126.697 32.4886 126.688 32.527 126.67 32.5618C126.653 32.5967 126.628 32.627 126.597 32.6503C126.463 32.9178 126.33 33.0516 126.063 33.0516L120.992 33.319C119.509 33.4839 118.097 34.0417 116.901 34.935C115.705 35.8282 114.768 37.0247 114.186 38.4014L113.92 39.6051C113.786 39.7388 113.92 40.0063 114.186 40.0063H131.801C131.855 40.0141 131.911 40.0091 131.963 39.9917C132.015 39.9743 132.062 39.9449 132.101 39.906C132.14 39.8671 132.169 39.8196 132.187 39.7674C132.204 39.7152 132.209 39.6596 132.201 39.6051C132.519 38.4719 132.698 37.3042 132.735 36.1277C132.714 32.7645 131.371 29.545 128.999 27.1668C126.626 24.7885 123.413 23.4431 120.058 23.4219Z" fill="#FAAD3F"/>
<path d="M134.461 47.4858C134.223 47.4858 133.991 47.4152 133.794 47.2829C133.596 47.1507 133.442 46.9627 133.351 46.7427C133.261 46.5228 133.237 46.2808 133.283 46.0473C133.329 45.8138 133.444 45.5993 133.612 45.4309C133.78 45.2626 133.994 45.148 134.227 45.1015C134.46 45.0551 134.701 45.0789 134.921 45.17C135.14 45.2611 135.328 45.4154 135.46 45.6133C135.592 45.8113 135.662 46.044 135.662 46.2821C135.663 46.4403 135.632 46.5972 135.572 46.7435C135.512 46.8899 135.423 47.0228 135.312 47.1347C135.2 47.2466 135.067 47.3353 134.921 47.3955C134.775 47.4558 134.619 47.4865 134.461 47.4858ZM134.461 45.3459C134.276 45.3459 134.096 45.4008 133.942 45.5037C133.788 45.6065 133.669 45.7527 133.598 45.9238C133.527 46.0949 133.509 46.2831 133.545 46.4647C133.581 46.6463 133.67 46.8132 133.801 46.9441C133.931 47.075 134.098 47.1642 134.279 47.2003C134.46 47.2364 134.648 47.2179 134.818 47.147C134.989 47.0762 135.135 46.9562 135.238 46.8022C135.34 46.6483 135.395 46.4673 135.395 46.2821C135.398 46.1583 135.376 46.0352 135.33 45.9203C135.284 45.8053 135.216 45.7009 135.128 45.6134C135.041 45.5258 134.937 45.457 134.822 45.411C134.707 45.365 134.585 45.3429 134.461 45.3459ZM134.995 46.9508H134.728L134.461 46.5496H134.194V46.9508H133.927V45.7471H134.594C134.649 45.7393 134.704 45.7443 134.756 45.7617C134.809 45.7792 134.856 45.8085 134.895 45.8474C134.934 45.8864 134.963 45.9338 134.98 45.986C134.998 46.0383 135.003 46.0938 134.995 46.1483C134.995 46.2821 134.861 46.4158 134.728 46.5496L134.995 46.9508ZM134.594 46.2821C134.728 46.2821 134.728 46.2821 134.728 46.1483C134.728 46.1307 134.725 46.1131 134.719 46.0967C134.712 46.0803 134.702 46.0654 134.69 46.0529C134.677 46.0404 134.662 46.0306 134.646 46.024C134.63 46.0174 134.612 46.0142 134.594 46.0146H134.194V46.4158H134.594V46.2821ZM14.8968 45.0784H17.8326V53.1031H22.9034V55.6443H14.8968V45.0784ZM25.9725 50.2945C25.9726 49.5515 26.1231 48.8164 26.4149 48.1334C26.7067 47.4505 27.1338 46.8341 27.6702 46.3214C28.2067 45.8087 28.8414 45.4105 29.5358 45.1509C30.2303 44.8913 30.9702 44.7756 31.7106 44.8109C32.444 44.7778 33.1765 44.8959 33.8626 45.158C34.5487 45.4202 35.1737 45.8206 35.6991 46.3347C36.2245 46.8487 36.6391 47.4654 36.917 48.1465C37.195 48.8277 37.3305 49.5587 37.3151 50.2945C37.3151 51.0374 37.1646 51.7725 36.8728 52.4555C36.581 53.1384 36.1539 53.7548 35.6175 54.2675C35.081 54.7802 34.4463 55.1784 33.7518 55.438C33.0573 55.6977 32.3175 55.8133 31.5771 55.778C30.8465 55.7998 30.1189 55.6738 29.4379 55.4077C28.7569 55.1415 28.1364 54.7406 27.6133 54.2288C27.0903 53.717 26.6754 53.1049 26.3935 52.429C26.1116 51.753 25.9684 51.0271 25.9725 50.2945ZM34.3794 50.2945C34.4056 49.9237 34.3564 49.5515 34.235 49.2003C34.1136 48.8491 33.9223 48.5262 33.6729 48.2512C33.4234 47.9761 33.1209 47.7547 32.7836 47.6001C32.4463 47.4456 32.0813 47.3612 31.7106 47.3521C30.991 47.3873 30.3125 47.6985 29.8157 48.2214C29.3188 48.7443 29.0417 49.4387 29.0417 50.1607C29.0417 50.8828 29.3188 51.5772 29.8157 52.1C30.3125 52.6229 30.991 52.9342 31.7106 52.9694C33.3119 53.2369 34.3794 51.8994 34.3794 50.2945ZM40.9181 50.9632V45.0784H43.8538V50.9632C43.8538 52.4344 44.6544 53.2369 45.8554 53.2369C46.1359 53.2602 46.418 53.2197 46.6807 53.1184C46.9434 53.0171 47.1798 52.8576 47.3723 52.6518C47.5648 52.446 47.7084 52.1993 47.7923 51.93C47.8763 51.6608 47.8984 51.376 47.8571 51.0969V45.0784H50.7928V50.9632C50.7928 54.4406 48.7912 55.9118 45.8554 55.9118C42.7863 55.778 40.9181 54.3068 40.9181 50.9632ZM55.1964 45.0784H59.3331C63.0695 45.0784 65.338 47.2183 65.338 50.2945C65.338 53.3706 63.0695 55.6443 59.3331 55.6443H55.3298V45.0784H55.1964ZM59.3331 52.9694C59.705 53.0049 60.0801 52.9622 60.4346 52.844C60.789 52.7257 61.1148 52.5346 61.3913 52.2827C61.6677 52.0309 61.8885 51.7239 62.0396 51.3815C62.1907 51.0391 62.2688 50.6689 62.2688 50.2945C62.2688 49.9201 62.1907 49.5498 62.0396 49.2074C61.8885 48.865 61.6677 48.558 61.3913 48.3062C61.1148 48.0543 60.789 47.8632 60.4346 47.7449C60.0801 47.6267 59.705 47.584 59.3331 47.6195H58.1321V52.9694H59.3331ZM69.4747 45.0784H77.8816V47.6195H72.4104V49.3582H77.3478V51.7657H72.4104V55.6443H69.4747V45.0784ZM82.0183 45.0784H84.954V53.1031H90.0248V55.6443H82.0183V45.0784ZM97.631 44.9446H100.567L105.104 55.6443H101.901L101.1 53.7718H96.9638L96.1631 55.6443H93.094L97.631 44.9446ZM100.3 51.4982L99.0989 48.5558L97.8979 51.4982H100.3ZM108.84 45.0784H113.777C114.407 45.0272 115.041 45.1077 115.638 45.3149C116.236 45.5221 116.783 45.8515 117.247 46.2821C117.629 46.6953 117.907 47.1946 118.056 47.738C118.205 48.2813 118.221 48.8527 118.103 49.4037C117.986 49.9547 117.737 50.4691 117.379 50.9035C117.021 51.338 116.564 51.6795 116.046 51.8994L118.581 55.6443H115.245L113.11 52.4344H111.776V55.6443H108.84V45.0784ZM113.644 50.1607C114.578 50.1607 115.245 49.6257 115.245 48.957C115.245 48.1545 114.578 47.7533 113.644 47.7533H111.776V50.2945H113.644V50.1607ZM122.318 45.0784H130.858V47.4858H125.254V49.0907H130.324V51.4982H125.254V53.1031H130.992V55.6443H122.318V45.0784ZM8.49162 51.6319C8.29036 52.1046 7.95594 52.5082 7.52932 52.7932C7.10269 53.0783 6.60238 53.2325 6.08966 53.2369C5.3701 53.2017 4.69162 52.8904 4.19478 52.3675C3.69794 51.8446 3.42082 51.1503 3.42082 50.4282C3.42082 49.7061 3.69794 49.0118 4.19478 48.4889C4.69162 47.966 5.3701 47.6547 6.08966 47.6195C6.63538 47.63 7.16613 47.8002 7.6166 48.1091C8.06707 48.4181 8.4176 48.8522 8.62506 49.3582H11.6942C11.4317 48.0771 10.7246 46.9307 9.69847 46.1226C8.67238 45.3146 7.39374 44.8972 6.08966 44.9446C5.35202 44.9206 4.617 45.044 3.92747 45.3078C3.23794 45.5715 2.60771 45.9702 2.07358 46.4806C1.53944 46.9911 1.11208 47.6031 0.816438 48.2808C0.520797 48.9586 0.362794 49.6886 0.351648 50.4282C0.347541 51.1608 0.490706 51.8868 0.772603 52.5627C1.0545 53.2387 1.46935 53.8508 1.99241 54.3625C2.51547 54.8743 3.13602 55.2752 3.81703 55.5414C4.49805 55.8076 5.22558 55.9335 5.95622 55.9118C7.2312 55.9204 8.47304 55.5049 9.48722 54.7305C10.5014 53.956 11.2307 52.8662 11.5608 51.6319H8.49162Z" fill="white"/>
</g>
<defs>
<clipPath id="clip0_8268_18600">
<rect width="135.31" height="44.7031" fill="white" transform="translate(0.351562 11.1484)"/>
</clipPath>
</defs>
</svg>
