<svg width="65" height="67" viewBox="0 0 65 67" fill="none" xmlns="http://www.w3.org/2000/svg">
<g clip-path="url(#clip0_7177_25901)">
<path d="M32.2853 4.7036C24.3368 4.7036 17.1385 7.92767 11.9268 13.1433C6.71308 18.3471 3.491 25.5494 3.491 33.5019C3.491 41.4484 6.71308 48.6458 11.9268 53.8515C17.1385 59.0602 24.3368 62.2903 32.2853 62.2903C40.2358 62.2903 47.4381 59.0602 52.6419 53.8515C57.8536 48.6458 61.0687 41.4484 61.0687 33.5019C61.0687 25.5494 57.8536 18.3471 52.6419 13.1433C47.4381 7.92767 40.2358 4.7036 32.2853 4.7036ZM32.2853 1.21458C50.1124 1.21458 64.5667 15.6708 64.5667 33.5019C64.5667 51.327 50.1124 65.7812 32.2853 65.7812C14.4602 65.7812 0 51.327 0 33.5019C0 15.6708 14.4602 1.21458 32.2853 1.21458Z" fill="#007DB8"/>
<path d="M17.0161 33.2426C17.0161 31.3611 15.7677 30.2924 14.0004 30.2924H12.9188V36.1947H13.9696C15.6129 36.1947 17.0161 35.3016 17.0161 33.2426ZM36.2563 35.3661L28.2879 41.6406L21.0052 35.907C19.9544 38.4314 17.415 40.1849 14.4906 40.1849H8.25781V26.3003H14.4906C17.7583 26.3003 20.1131 28.3782 21.0032 30.5921L28.2879 24.8644L30.986 26.9879L24.3097 32.2354L25.5928 33.2396L32.2671 27.9952L34.9692 30.1128L28.2939 35.3661L29.575 36.3724L36.2563 31.118V26.3003H41.0998V36.1322H45.9315V40.2018H36.2563V35.3661ZM52.067 36.1342H56.8967V40.2018H47.2185V26.3003H52.067V36.1342Z" fill="#007DB8"/>
</g>
<defs>
<clipPath id="clip0_7177_25901">
<rect width="64.5667" height="67" fill="white"/>
</clipPath>
</defs>
</svg>
