<svg width="68" height="67" viewBox="0 0 68 67" fill="none" xmlns="http://www.w3.org/2000/svg">
<path d="M32.7086 1.55703L2.01423 32.2514C1.27718 32.9884 1.27718 34.1834 2.01423 34.9205L15.5264 48.4327C16.2635 49.1697 17.4585 49.1697 18.1955 48.4327L48.8899 17.7383C49.6269 17.0013 49.6269 15.8063 48.8899 15.0692L35.3777 1.55703C34.6406 0.819983 33.4456 0.819983 32.7086 1.55703Z" fill="#DE2939"/>
<path d="M13.6947 36.255C15.1688 34.7809 15.1688 32.391 13.6947 30.9169C12.2206 29.4428 9.83067 29.4428 8.35658 30.9169C6.88249 32.391 6.88249 34.7809 8.35658 36.255C9.83067 37.7291 12.2206 37.7291 13.6947 36.255Z" fill="white"/>
<path d="M25.4525 36.341C26.9266 34.8669 26.9266 32.4769 25.4525 31.0028C23.9784 29.5287 21.5885 29.5287 20.1144 31.0028C18.6403 32.4769 18.6403 34.8669 20.1144 36.341C21.5885 37.815 23.9784 37.815 25.4525 36.341Z" fill="white"/>
<path d="M36.7963 18.9894C38.2704 17.5153 38.2704 15.1253 36.7963 13.6512C35.3222 12.1771 32.9322 12.1771 31.4581 13.6512C29.984 15.1253 29.984 17.5153 31.4581 18.9894C32.9322 20.4635 35.3222 20.4635 36.7963 18.9894Z" fill="white"/>
<path d="M18.3603 15.9053L17.3594 16.9062L33.5406 33.0875L34.5416 32.0866L18.3603 15.9053Z" fill="white"/>
<path d="M49.7242 18.5727L19.0299 49.267C18.2928 50.0041 18.2928 51.1991 19.0299 51.9361L32.542 65.4483C33.2791 66.1853 34.4741 66.1853 35.2111 65.4483L65.9055 34.7539C66.6425 34.0169 66.6425 32.8219 65.9055 32.0849L52.3933 18.5727C51.6563 17.8356 50.4613 17.8356 49.7242 18.5727Z" fill="#007BAD"/>
<path fill-rule="evenodd" clip-rule="evenodd" d="M26.7062 56.2687L20.8676 50.4301L22.8694 48.4283C25.7053 46.2597 30.7099 51.2642 28.708 54.2669L26.7062 56.2687ZM23.7035 50.2633L26.7062 53.266C27.7071 51.9315 25.0381 49.2624 23.7035 50.2633ZM28.5412 45.9261C30.8767 43.5906 35.1305 47.8445 32.7951 50.1799C30.4596 52.5154 26.2058 48.2615 28.5412 45.9261ZM29.6255 47.0104C30.2094 46.4265 32.2946 48.5117 31.7108 49.0956C31.1269 49.6795 29.0417 47.5942 29.6255 47.0104ZM31.0435 43.9243L32.5448 42.4229L33.0453 42.9234C32.9764 42.6468 32.9802 42.3572 33.0563 42.0826C33.1325 41.808 33.2784 41.5577 33.4799 41.3562C33.6815 41.1547 33.9317 41.0088 34.2063 40.9326C34.4809 40.8564 34.7706 40.8526 35.0471 40.9216C34.9782 40.645 34.982 40.3554 35.0581 40.0808C35.1343 39.8061 35.2802 39.5559 35.4818 39.3544C35.6833 39.1529 35.9335 39.007 36.2081 38.9308C36.4827 38.8546 36.7724 38.8508 37.0489 38.9198L40.5521 42.4229L39.1341 43.8409L36.6319 41.3386C36.5248 41.2892 36.4173 41.2663 36.3206 41.2723C36.2238 41.2782 36.1414 41.3128 36.0818 41.3724C36.0222 41.432 35.9876 41.5144 35.9817 41.6112C35.9757 41.7079 35.9986 41.8154 36.048 41.9225L38.5503 44.4247L37.0489 45.9261L34.5467 43.4238C34.4396 43.3744 34.3321 43.3515 34.2353 43.3575C34.1386 43.3634 34.0561 43.398 33.9965 43.4576C33.937 43.5172 33.9024 43.5996 33.8965 43.6964C33.8905 43.7931 33.9134 43.9006 33.9628 44.0077L36.4651 46.5099L35.0471 47.9279L31.0435 43.9243ZM37.2157 37.752L38.7171 36.2507L42.7207 40.2543L41.2193 41.7556L37.2157 37.752ZM35.631 34.6659C35.4015 34.8963 35.2729 35.2083 35.2733 35.5335C35.2738 35.8586 35.4033 36.1703 35.6335 36.4C35.8636 36.6297 36.1755 36.7586 36.5007 36.7584C36.8258 36.7583 37.1376 36.6291 37.3675 36.3991C37.5974 36.1692 37.7267 35.8574 37.7268 35.5323C37.727 35.2071 37.5981 34.8952 37.3684 34.6651C37.1387 34.4349 36.827 34.3054 36.5019 34.3049C36.1767 34.3045 35.8647 34.4331 35.6343 34.6626M39.3844 35.5834L40.8023 34.1655L41.4696 34.8327C41.3554 34.5265 41.3453 34.1913 41.4409 33.8788C41.5365 33.5663 41.7324 33.294 41.9983 33.1041C42.2642 32.9141 42.5853 32.8171 42.9119 32.8281C43.2385 32.839 43.5524 32.9573 43.805 33.1646L46.8077 36.1673L45.3898 37.5852L42.8875 35.083C42.7804 35.0336 42.6729 35.0107 42.5762 35.0166C42.4795 35.0225 42.397 35.0571 42.3374 35.1167C42.2778 35.1763 42.2433 35.2588 42.2373 35.3555C42.2314 35.4522 42.2543 35.5597 42.3037 35.6668L44.8059 38.1691L43.388 39.587L39.3844 35.5834ZM44.8893 29.578C47.2248 27.2425 51.4786 31.4964 49.1432 33.8318C46.8077 36.1673 42.5539 31.9134 44.8893 29.578ZM45.9736 30.6623C46.5575 30.0784 48.6427 32.1637 48.0588 32.7475C47.475 33.3314 45.3898 31.2462 45.9736 30.6623ZM46.057 25.2407L47.5584 23.7394L49.1432 27.326L48.0588 28.4103L46.057 25.2407ZM52.2293 24.7403C50.0607 25.5744 51.2284 26.4085 52.3961 25.5744C54.0643 24.9071 56.0661 26.9089 54.2311 28.7439C53.6194 29.2443 52.98 29.5502 52.3127 29.6614L51.9791 28.3269C54.0643 27.5762 53.0634 26.5753 51.3952 27.5762C49.3934 28.2434 47.7252 24.5735 51.7288 23.2389L52.2293 24.7403ZM35.7144 61.9405L34.0462 63.6087L28.0408 57.6033L29.709 55.9351C30.2399 55.4042 30.9599 55.1059 31.7108 55.1059C32.4616 55.1059 33.1817 55.4042 33.7126 55.9351C34.2435 56.466 34.5417 57.1861 34.5417 57.9369C34.5417 58.6877 34.2435 59.4078 33.7126 59.9387L35.7144 61.9405ZM30.8767 57.1028C31.1078 56.8717 31.413 56.7334 31.7251 56.7186C32.0371 56.7037 32.3305 56.8134 32.5407 57.0236C32.7508 57.2337 32.8605 57.5271 32.8457 57.8392C32.8308 58.1512 32.6926 58.4564 32.4614 58.6876L30.8767 57.1028ZM34.1296 55.1844L35.631 53.6831L39.8014 57.8535L38.3 59.3549L34.1296 55.1844ZM32.7784 52.3319C32.5489 52.5622 32.4203 52.8743 32.4207 53.1994C32.4212 53.5246 32.5508 53.8362 32.7809 54.0659C33.011 54.2956 33.3229 54.4246 33.6481 54.4244C33.9732 54.4242 34.285 54.295 34.515 54.0651C34.7449 53.8352 34.8741 53.5234 34.8743 53.1982C34.8744 52.8731 34.7455 52.5612 34.5158 52.331C34.2861 52.1009 33.9744 51.9713 33.6493 51.9709C33.3241 51.9704 33.0121 52.099 32.7817 52.3285M36.2148 53.0992L39.3844 49.9297L40.9691 54.1835L42.2202 52.9324L43.4714 54.1835L40.2184 57.4365L38.5503 53.0992L37.3825 54.2669L36.2148 53.0992ZM39.9682 49.3458L43.1377 46.1763L44.7225 50.4301L45.9736 49.179L47.2248 50.4301L43.8884 53.7665L42.3037 49.3458L41.0525 50.597L39.9682 49.3458ZM49.1432 47.1772C49.2451 47.6546 49.2032 48.0883 49.0227 48.4241C48.8423 48.7598 48.5312 48.9827 48.1286 49.0646C47.726 49.1465 47.2498 49.0839 46.7596 48.8846C46.2694 48.6854 45.7872 48.3583 45.3733 47.9444C44.9594 47.5305 44.6323 47.0482 44.433 46.5581C44.2337 46.0679 44.1711 45.5917 44.2531 45.189C44.335 44.7864 44.5578 44.4754 44.8936 44.2949C45.2293 44.1144 45.6631 44.0725 46.1405 44.1745L45.64 43.674L47.2248 42.0893L51.3952 46.2597L49.8104 47.8445L49.1432 47.1772ZM48.1423 46.1763C48.2403 46.3584 48.2852 46.5204 48.2705 46.6394C48.2559 46.7585 48.1825 46.8285 48.0607 46.8395C47.9389 46.8506 47.7749 46.8022 47.5919 46.7011C47.409 46.6 47.2163 46.4515 47.0413 46.2764C46.8662 46.1013 46.7176 45.9087 46.6165 45.7257C46.5155 45.5428 46.467 45.3788 46.4781 45.257C46.4892 45.1352 46.5592 45.0618 46.6782 45.0471C46.7973 45.0325 46.9593 45.0774 47.1414 45.1754L48.1423 46.1763Z" fill="white"/>
</svg>
