<svg width="66" height="67" viewBox="0 0 66 67" fill="none" xmlns="http://www.w3.org/2000/svg">
<path d="M32.9479 7.77344C26.1241 7.77344 19.5798 10.4842 14.7546 15.3093C9.92949 20.1345 7.21875 26.6788 7.21875 33.5026C7.21875 40.3264 9.92949 46.8707 14.7546 51.6959C19.5798 56.521 26.1241 59.2318 32.9479 59.2318C39.7717 59.2318 46.316 56.521 51.1412 51.6959C55.9663 46.8707 58.6771 40.3264 58.6771 33.5026C58.6771 26.6788 55.9663 20.1345 51.1412 15.3093C46.316 10.4842 39.7717 7.77344 32.9479 7.77344Z" fill="#039BE5"/>
<path d="M36.458 40.5442H43.1634L44.2162 33.572H36.4567V29.7614C36.4567 26.865 37.3813 24.2967 40.0282 24.2967H44.2817V18.2122C43.5344 18.1089 41.9538 17.8828 38.9673 17.8828C32.731 17.8828 29.0749 21.2538 29.0749 28.9336V33.572H22.6641V40.5442H29.0749V59.7076C30.3445 59.903 31.6305 60.0356 32.9506 60.0356C34.1438 60.0356 35.3084 59.9239 36.458 59.7648V40.5442Z" fill="white"/>
</svg>
