<svg width="29" height="67" viewBox="0 0 29 67" fill="none" xmlns="http://www.w3.org/2000/svg">
<g clip-path="url(#clip0_7177_26060)">
<path d="M7.42227 54.2899C11.2477 54.2899 14.3524 51.1852 14.3524 47.3598V40.4297H7.42227C3.59686 40.4297 0.492188 43.5344 0.492188 47.3598C0.492188 51.1852 3.59686 54.2899 7.42227 54.2899Z" fill="#0ACF83"/>
<path d="M0.492188 33.5004C0.492188 29.675 3.59686 26.5703 7.42227 26.5703H14.3524V40.4305H7.42227C3.59686 40.4305 0.492188 37.3258 0.492188 33.5004Z" fill="#A259FF"/>
<path d="M0.492188 19.641C0.492188 15.8156 3.59686 12.7109 7.42227 12.7109H14.3524V26.5711H7.42227C3.59686 26.5711 0.492188 23.4664 0.492188 19.641Z" fill="#F24E1E"/>
<path d="M14.3516 12.7109H21.2816C25.1071 12.7109 28.2117 15.8156 28.2117 19.641C28.2117 23.4664 25.1071 26.5711 21.2816 26.5711H14.3516V12.7109Z" fill="#FF7262"/>
<path d="M28.2117 33.5004C28.2117 37.3258 25.1071 40.4305 21.2816 40.4305C17.4562 40.4305 14.3516 37.3258 14.3516 33.5004C14.3516 29.675 17.4562 26.5703 21.2816 26.5703C25.1071 26.5703 28.2117 29.675 28.2117 33.5004Z" fill="#1ABCFE"/>
</g>
<defs>
<clipPath id="clip0_7177_26060">
<rect width="27.7259" height="41.5805" fill="white" transform="translate(0.492188 12.7109)"/>
</clipPath>
</defs>
</svg>
