<svg width="153" height="67" viewBox="0 0 153 67" fill="none" xmlns="http://www.w3.org/2000/svg">
<path d="M152.194 20.4353C152.177 20.3787 152.16 20.3222 152.137 20.2656C138.717 20.2713 125.303 20.2656 111.888 20.2713C111.854 20.3109 111.832 20.3504 111.826 20.4013C111.826 30.7895 111.826 41.1719 111.82 51.5601C111.905 52.1142 112.211 52.6175 112.619 52.9964C112.636 53.0021 112.676 53.0076 112.693 53.0133C112.902 53.2338 113.203 53.3414 113.486 53.4431C113.695 53.4319 113.899 53.5223 114.109 53.4997H130.764C130.922 53.494 131.087 53.5223 131.239 53.4601C131.245 53.4376 131.251 53.3979 131.256 53.3753C131.262 53.347 131.268 53.2848 131.274 53.251C131.63 51.2605 131.976 49.2642 132.356 47.2738L132.39 47.0193C130.849 47.0135 129.302 47.0193 127.761 47.0135C127.387 47.0023 127.002 47.0135 126.628 46.9682C125.988 46.9399 125.343 46.9626 124.702 46.9004C123.909 46.9004 123.122 46.8268 122.329 46.8268C121.706 46.7646 121.077 46.7873 120.448 46.759C120.04 46.7083 119.621 46.7308 119.208 46.7137C118.534 46.6403 117.848 46.6912 117.174 46.6177C116.46 46.6234 115.746 46.5611 115.033 46.5441C115.038 46.5384 115.044 46.5158 115.044 46.5102C115.282 46.5158 115.514 46.4989 115.752 46.4933C116.279 46.4253 116.811 46.4706 117.338 46.3971C117.888 46.3971 118.432 46.3236 118.981 46.3236C119.468 46.2557 119.961 46.2953 120.448 46.2274C121.02 46.2274 121.581 46.154 122.153 46.1482C122.624 46.086 123.099 46.12 123.57 46.0578C124.119 46.0634 124.663 45.9786 125.212 45.9843C125.751 45.922 126.3 45.9389 126.838 45.8823C126.787 45.6733 126.747 45.464 126.702 45.2547C126.663 45.1246 126.504 45.1529 126.402 45.1359C125.173 44.9605 123.949 44.7853 122.726 44.6157C122.805 44.5534 122.912 44.5817 123.003 44.5704C123.955 44.4968 124.901 44.412 125.853 44.3442C126.068 44.333 126.277 44.2933 126.493 44.2877C126.396 43.9937 126.34 43.6713 126.209 43.3999C124.176 43.0889 122.142 42.8118 120.114 42.4781C120.641 42.3932 121.173 42.3537 121.7 42.2972L121.746 42.2801C123.428 42.1047 125.116 41.9068 126.799 41.7429C128.934 41.7317 131.064 41.7372 133.2 41.7429C133.268 41.7317 133.387 41.7654 133.398 41.6694C133.574 40.7533 133.744 39.8373 133.919 38.9211C134.163 37.6488 134.548 36.3934 135.143 35.2341C136.078 33.368 137.556 31.7846 139.357 30.7328C141.04 29.7489 142.989 29.2738 144.926 29.1834C145.555 29.1268 146.189 29.1438 146.812 29.2229C147.22 29.3191 147.64 29.4322 147.962 29.7093C148.229 29.9242 148.387 30.2408 148.506 30.5575C148.767 31.3096 148.914 32.09 149.039 32.876C149.044 33.1927 149.101 33.549 148.931 33.8374C148.772 34.1201 148.455 34.2558 148.155 34.3407C147.062 34.6234 145.917 34.3576 144.824 34.6234C143.923 34.8157 143.085 35.3133 142.513 36.0315C141.839 36.8684 141.482 37.9088 141.284 38.9494C141.131 39.8769 140.938 40.8042 140.785 41.7373C141.861 41.743 142.943 41.7316 144.025 41.743C144.456 41.743 144.898 41.9805 145.073 42.3876C145.3 42.9079 145.249 43.4961 145.175 44.0446C145.085 44.6609 144.937 45.2716 144.66 45.8371C144.427 46.3178 144.042 46.7589 143.515 46.9286C143.244 47.036 142.949 47.0134 142.66 47.0134C141.708 47.0134 140.757 47.0247 139.805 47.0134C139.652 47.709 139.55 48.4215 139.414 49.1283C139.165 50.5024 138.921 51.8822 138.672 53.2621C138.666 53.3074 138.661 53.4035 138.661 53.4544C139.108 53.477 139.556 53.4544 140.003 53.4656C143.323 53.4656 146.648 53.4599 149.973 53.4656C150.33 53.477 150.693 53.3922 151.004 53.2168C151.191 53.149 151.305 52.985 151.469 52.8945C151.628 52.8041 151.673 52.6176 151.809 52.4987C151.956 52.2386 152.109 51.9672 152.12 51.6617C152.137 51.6617 152.183 51.656 152.205 51.6505C152.188 41.2455 152.205 30.8404 152.194 20.4353Z" fill="url(#paint0_linear_7177_26061)" stroke="#FCD109" stroke-width="0.00401633"/>
<path d="M117.105 13.5872C117.586 13.4345 118.091 13.5363 118.583 13.5023C127.834 13.508 137.085 13.5023 146.336 13.5023C146.885 13.4797 147.367 13.7907 147.876 13.9491C148.284 14.1131 148.709 14.2431 149.117 14.4184C149.202 14.4524 149.264 14.5259 149.326 14.5881C149.321 15.3345 149.326 16.0866 149.326 16.8387C149.332 17.0367 149.298 17.2403 149.366 17.4325C149.485 17.4495 149.547 17.54 149.627 17.6135C150.001 17.7831 150.318 18.0602 150.658 18.2864C151.168 18.6483 151.712 18.965 152.21 19.3382C152.233 19.4853 152.216 19.6379 152.17 19.7737C152.119 19.932 152.153 20.1017 152.136 20.26C138.716 20.2656 125.302 20.26 111.887 20.2656C111.859 20.079 111.91 19.8924 111.831 19.7171C111.819 19.5701 111.768 19.3778 111.91 19.276C112.477 18.8802 113.077 18.5239 113.632 18.1055C113.978 17.8849 114.312 17.6587 114.646 17.4325C114.714 17.3194 114.691 17.178 114.691 17.0536C114.691 16.2337 114.691 15.4137 114.697 14.5937C114.89 14.3449 115.224 14.3166 115.49 14.1922C116.029 13.9887 116.572 13.7907 117.105 13.5872ZM117.139 13.6833C116.414 13.9604 115.683 14.2262 114.958 14.5033C114.862 14.5202 114.81 14.605 114.76 14.6786C114.765 14.7238 114.771 14.803 114.771 14.8482C114.765 15.5268 114.771 16.2054 114.765 16.884C114.771 17.0536 114.748 17.2233 114.81 17.376C114.737 17.4495 114.658 17.523 114.567 17.5795C113.745 18.1111 112.952 18.6879 112.131 19.2138C111.989 19.2987 111.831 19.4117 111.876 19.5984C111.848 19.7002 111.899 19.785 112.006 19.7567C113.785 19.7454 115.558 19.768 117.337 19.7397C119.983 19.7397 122.622 19.7454 125.268 19.7397L125.308 19.7228C125.427 19.751 125.545 19.7397 125.67 19.7397C130.462 19.7397 135.255 19.7454 140.053 19.7397C141.56 19.7454 143.072 19.7397 144.585 19.7397C147.077 19.7397 149.576 19.7624 152.068 19.751C152.142 19.7341 152.165 19.6832 152.136 19.5927C152.13 19.5022 152.165 19.3778 152.068 19.3213C151.672 19.1347 151.332 18.8463 150.952 18.6201C150.816 18.507 150.641 18.4448 150.539 18.2921C150.148 18.0715 149.785 17.8001 149.4 17.5569C149.326 17.5117 149.27 17.4382 149.208 17.376C149.242 17.2572 149.253 17.1272 149.253 17.0027C149.247 16.2846 149.253 15.5664 149.247 14.8482C149.264 14.7351 149.258 14.605 149.156 14.5315C148.477 14.2884 147.803 14.0282 147.128 13.7794C146.919 13.6776 146.687 13.6211 146.46 13.5872H117.507C117.382 13.5928 117.263 13.655 117.139 13.6833Z" fill="#F8F3B5" stroke="#F8F3B5" stroke-width="0.00401633"/>
<path d="M114.771 14.8516C115.27 15.0608 115.802 15.1795 116.307 15.3831C116.578 15.4906 116.663 15.7846 116.782 16.0221C116.663 16.1409 116.522 16.237 116.38 16.3275C115.859 16.6781 115.326 17.0174 114.811 17.3793C114.749 17.2266 114.771 17.057 114.766 16.8873C114.771 16.2087 114.766 15.5302 114.771 14.8516ZM147.713 15.3831C148.217 15.1852 148.744 15.0495 149.248 14.8516C149.253 15.5697 149.248 16.2879 149.253 17.0061C149.253 17.1305 149.242 17.2606 149.208 17.3793C148.766 17.074 148.319 16.7856 147.877 16.4858C147.662 16.3275 147.424 16.2087 147.231 16.0165C147.35 15.779 147.441 15.4906 147.713 15.3831Z" fill="#F7B402" stroke="#F7B402" stroke-width="0.00401633"/>
<path d="M123.416 15.6106C124.039 15.4636 124.736 16.0178 124.685 16.6681C124.691 17.3071 124.016 17.8273 123.399 17.6803C123.15 17.5955 122.912 17.4654 122.759 17.2449C122.561 16.9452 122.515 16.5437 122.674 16.2157C122.787 15.899 123.093 15.6841 123.416 15.6106ZM139.578 15.9669C139.838 15.6785 140.252 15.5145 140.637 15.6163C140.926 15.7011 141.209 15.8877 141.334 16.1704C141.583 16.6568 141.391 17.3127 140.903 17.5672C140.473 17.8047 139.929 17.6916 139.601 17.3467C139.266 16.9678 139.244 16.3457 139.578 15.9669Z" fill="#BDA727" stroke="#BDA727" stroke-width="0.00401633"/>
<path d="M116.379 16.3266C116.52 16.2362 116.662 16.14 116.781 16.0213L116.821 16.0609C116.86 16.3549 116.832 16.6546 116.843 16.9487C116.826 17.8309 116.86 18.7187 116.821 19.6009C115.172 19.6009 113.524 19.5895 111.875 19.6009C111.83 19.4142 111.988 19.3011 112.13 19.2163C112.951 18.6904 113.744 18.1136 114.566 17.582C114.657 17.5255 114.736 17.452 114.809 17.3785C115.325 17.0166 115.857 16.6773 116.379 16.3266ZM147.173 16.2135C147.173 16.14 147.19 16.0778 147.229 16.0156C147.422 16.2079 147.66 16.3266 147.875 16.485C148.317 16.7847 148.765 17.0731 149.206 17.3785C149.269 17.4407 149.325 17.5142 149.399 17.5594C149.784 17.8026 150.147 18.074 150.538 18.2946C150.64 18.4473 150.815 18.5095 150.951 18.6226C151.331 18.8488 151.671 19.1372 152.067 19.3238C152.164 19.3803 152.13 19.5047 152.135 19.5952C150.487 19.6009 148.844 19.5895 147.195 19.6009C147.167 19.3747 147.184 19.1485 147.178 18.9279C147.179 18.0231 147.167 17.1183 147.173 16.2135Z" fill="#F7E62D" stroke="#F7E62D" stroke-width="0.00401633"/>
<path d="M152.135 19.5915C150.487 19.5971 148.844 19.5858 147.196 19.5971C147.167 19.3709 147.184 19.1447 147.179 18.9242C147.179 18.0194 147.167 17.1146 147.173 16.2098C147.173 16.1363 147.19 16.0741 147.229 16.0119C147.349 15.7744 147.439 15.486 147.711 15.3786C148.215 15.1806 148.742 15.0449 149.246 14.847C149.263 14.7339 149.258 14.6038 149.156 14.5303C148.476 14.2872 147.802 14.027 147.127 13.7782C146.918 13.6764 146.686 13.6199 146.459 13.5859H117.506C117.381 13.5916 117.262 13.6538 117.138 13.6821C116.413 13.9592 115.682 14.2249 114.957 14.502C114.86 14.519 114.809 14.6038 114.758 14.6773C114.764 14.7226 114.77 14.8018 114.77 14.847C115.268 15.0562 115.801 15.175 116.305 15.3786C116.577 15.486 116.662 15.7801 116.781 16.0176L116.82 16.0571C116.86 16.3512 116.832 16.6509 116.843 16.945C116.826 17.8271 116.86 18.715 116.82 19.5971C115.172 19.5971 113.523 19.5858 111.875 19.5971C111.847 19.6989 111.898 19.7838 112.005 19.7555C113.784 19.7442 115.557 19.7668 117.336 19.7385C119.981 19.7385 122.621 19.7442 125.267 19.7385L125.306 19.7216C125.425 19.7498 125.544 19.7385 125.669 19.7385C130.461 19.7385 135.254 19.7442 140.052 19.7385C141.559 19.7442 143.071 19.7385 144.584 19.7385C147.076 19.7385 149.575 19.7611 152.067 19.7498C152.141 19.7329 152.164 19.682 152.135 19.5915ZM122.672 16.2155C122.786 15.8988 123.091 15.6839 123.414 15.6104C124.038 15.4634 124.734 16.0176 124.683 16.6679C124.689 17.3069 124.015 17.8271 123.397 17.6801C123.148 17.5953 122.91 17.4652 122.757 17.2447C122.559 16.945 122.514 16.5435 122.672 16.2155ZM139.576 15.9667C139.837 15.6783 140.25 15.5143 140.636 15.6161C140.925 15.7009 141.208 15.8875 141.332 16.1702C141.582 16.6566 141.389 17.3125 140.902 17.567C140.471 17.8045 139.928 17.6914 139.599 17.3465C139.265 16.9676 139.242 16.3455 139.576 15.9667Z" fill="url(#paint1_radial_7177_26061)" stroke="#FCD109" stroke-width="0.00401633"/>
<path d="M141.017 22.0788C141.096 22.0958 140.604 21.6069 140.7 21.5842C140.791 21.5955 141.134 21.3293 141.55 21.5465C141.965 21.7638 141.862 22.2722 141.815 22.4608C141.759 22.6851 141.616 22.8283 141.503 22.9414C141.44 22.9923 141.301 23.0715 141.216 23.0658C141.267 22.7887 141.102 22.7435 141.091 22.4608L141.017 22.0788Z" fill="url(#paint2_linear_7177_26061)" stroke="#FCD109" stroke-width="0.00401633"/>
<path d="M122.911 22.3827C122.9 22.6654 122.736 22.7107 122.787 22.9877C122.702 22.9934 122.562 22.9142 122.5 22.8633C122.386 22.7502 122.243 22.6071 122.187 22.3827C122.14 22.1942 122.037 21.6858 122.452 21.4684C122.868 21.2511 123.212 21.5174 123.302 21.5062C123.399 21.5288 122.906 22.0177 122.986 22.0007L122.911 22.3827Z" fill="url(#paint3_linear_7177_26061)" stroke="#FCD109" stroke-width="0.00401633"/>
<path d="M140.278 25.6989C140.364 25.625 140.42 25.625 140.534 25.625C139.854 27.0953 139.061 28.5656 137.868 29.7103C137.741 29.8239 137.606 29.9293 137.465 30.0257C137.329 30.1254 137.195 30.219 137.062 30.3142C136.931 30.4046 136.802 30.4954 136.676 30.5901C136.353 30.7654 136.07 31.0086 135.713 31.116C135.061 31.427 134.359 31.6363 133.651 31.7833C133.373 31.8286 133.09 31.8964 132.807 31.902C132.456 32.0039 132.082 31.9303 131.725 31.9529C131.526 31.9869 131.351 31.8738 131.158 31.8964C130.991 31.8728 130.824 31.8445 130.659 31.8115C130.491 31.7772 130.324 31.7376 130.158 31.6928C127.561 30.8841 125.012 28.9049 124.269 26.2281C124.236 26.0478 124.219 25.8649 124.219 25.6815C124.298 25.8399 124.38 25.9971 124.465 26.1528C125.522 28.4525 127.618 30.2621 130.094 30.8077C130.295 30.8992 130.512 30.8671 130.705 30.9463C130.881 30.9463 131.051 30.9406 131.221 30.9972C131.804 31.0084 132.388 31.0029 132.971 31.0029C133.05 31.0085 133.124 30.9689 133.203 30.952C134.176 30.919 135.129 30.6543 136.016 30.2528C136.193 30.1725 136.368 30.0867 136.54 29.9962C136.69 29.9172 136.837 29.8316 136.98 29.7396C137.12 29.6493 137.257 29.5532 137.389 29.4514C138.438 28.6221 139.344 27.5477 139.959 26.3121C140.077 26.0898 140.184 25.8839 140.278 25.6989Z" fill="#BDA727" stroke="#BDA727" stroke-width="0.00401633"/>
<path d="M139.353 30.7234C141.035 29.7394 142.984 29.2644 144.921 29.1739C145.55 29.1174 146.185 29.1343 146.808 29.2135C147.216 29.3096 147.635 29.4227 147.958 29.6998C147.793 29.7111 147.635 29.6376 147.47 29.615C147.006 29.5245 146.524 29.5585 146.054 29.5471C144.689 29.5471 143.312 29.6546 141.993 30.0278C141.301 30.2371 140.61 30.4802 139.982 30.8421C138.894 31.4416 137.914 32.2332 137.121 33.1833C135.705 34.8063 134.872 36.8646 134.47 38.9627C134.277 40.0879 134.056 41.2075 133.88 42.3385C133.597 42.3668 133.308 42.3499 133.025 42.3499C131.779 42.3442 130.533 42.3385 129.286 42.3274C129.02 42.3385 128.759 42.2765 128.493 42.2933C126.227 42.3046 123.961 42.2877 121.695 42.2877L121.741 42.2707C123.423 42.0952 125.111 41.8973 126.794 41.7334C128.929 41.7222 131.059 41.7277 133.195 41.7334C133.263 41.7222 133.382 41.7559 133.393 41.6599C133.569 40.7438 133.739 39.8278 133.914 38.9116C134.158 37.6394 134.543 36.3839 135.138 35.2247C136.073 33.3585 137.551 31.7751 139.353 30.7234Z" fill="#0D69B3" stroke="#0D69B3" stroke-width="0.00401633"/>
<path d="M141.996 30.0354C143.316 29.6621 144.692 29.5547 146.057 29.5547C146.528 29.566 147.009 29.5321 147.474 29.6225C147.638 29.6452 147.796 29.7187 147.961 29.7074C148.227 29.9223 148.386 30.2389 148.505 30.5556C148.765 31.3077 148.912 32.0881 149.037 32.8741C149.043 33.1908 149.099 33.5471 148.929 33.8355C148.771 34.1182 148.454 34.2539 148.153 34.3388C147.06 34.6215 145.916 34.3557 144.822 34.6215C143.922 34.8138 143.083 35.3114 142.511 36.0296C141.837 36.8665 141.48 37.9069 141.282 38.9475C141.129 39.875 140.936 40.8023 140.783 41.7354C140.715 41.9447 140.676 42.1709 140.636 42.3915C141.707 42.4085 142.777 42.3915 143.848 42.4027C144.256 42.3915 144.664 42.414 145.072 42.3857C145.298 42.906 145.247 43.4942 145.174 44.0427C145.083 44.659 144.936 45.2697 144.658 45.8352C144.426 46.3159 144.041 46.757 143.514 46.9267C143.242 47.0341 142.947 47.0115 142.658 47.0115C141.707 47.0115 140.755 47.0228 139.803 47.0115C139.65 47.7071 139.548 48.4196 139.413 49.1264C139.163 50.5005 138.92 51.8803 138.67 53.2602C138.665 53.3055 138.659 53.4016 138.659 53.4525V53.4581C136.184 53.4581 133.714 53.4639 131.238 53.4581C131.244 53.4356 131.249 53.3959 131.255 53.3733C131.261 53.345 131.266 53.2828 131.272 53.249C131.278 53.2943 131.283 53.3791 131.289 53.4186C131.442 53.4356 131.72 53.5147 131.759 53.2943C132.145 51.2132 132.501 49.1208 132.898 47.0398C132.745 47.0058 132.586 47.0058 132.428 47.0341C132.405 47.1133 132.383 47.1924 132.354 47.2716L132.388 47.0171C130.847 47.0113 129.301 47.0171 127.76 47.0113C127.386 47.0002 127.001 47.0113 126.627 46.9661C125.987 46.9379 125.341 46.9605 124.701 46.8982C123.908 46.8982 123.121 46.8248 122.327 46.8248C121.704 46.7626 121.076 46.7851 120.447 46.7569C120.039 46.7061 119.62 46.7286 119.206 46.7117C118.532 46.6381 117.847 46.6892 117.173 46.6155C116.459 46.6213 115.745 46.5589 115.031 46.542C115.037 46.5364 115.043 46.5138 115.043 46.5081C115.281 46.5138 115.513 46.4967 115.751 46.4911C116.278 46.4233 116.81 46.4685 117.337 46.395C117.886 46.395 118.43 46.3214 118.98 46.3214C119.467 46.2536 119.96 46.2931 120.447 46.2253C121.019 46.2253 121.58 46.1518 122.152 46.1462C122.622 46.084 123.098 46.1179 123.568 46.0557C124.118 46.0614 124.662 45.9765 125.211 45.9821C125.749 45.9198 126.299 45.9368 126.837 45.8803C126.786 45.6711 126.746 45.4619 126.701 45.2526C126.661 45.1225 126.503 45.1507 126.401 45.1338C125.171 44.9584 123.948 44.7832 122.724 44.6135C122.803 44.5512 122.911 44.5795 123.002 44.5683C123.953 44.4947 124.899 44.4098 125.851 44.3421C126.066 44.3308 126.276 44.2912 126.491 44.2856C126.395 43.9915 126.338 43.6692 126.208 43.3977C124.174 43.0867 122.141 42.8096 120.113 42.476C120.639 42.3912 121.172 42.3515 121.699 42.295C123.965 42.295 126.231 42.312 128.497 42.3006C128.763 42.2837 129.023 42.3459 129.29 42.3347C130.536 42.3459 131.782 42.3517 133.029 42.3572C133.312 42.3572 133.601 42.3742 133.884 42.3459C134.06 41.215 134.28 40.0952 134.473 38.97C134.875 36.8719 135.708 34.8136 137.124 33.1907C137.917 32.2406 138.897 31.4489 139.985 30.8495C140.613 30.4878 141.305 30.2446 141.996 30.0354Z" fill="#107BD4" stroke="#107BD4" stroke-width="0.00401633"/>
<path d="M140.777 41.7344C141.853 41.7401 142.935 41.7287 144.017 41.7401C144.448 41.7401 144.89 41.9776 145.065 42.3847C144.657 42.413 144.25 42.3905 143.842 42.4017C142.771 42.3905 141.7 42.4075 140.63 42.3905C140.669 42.1699 140.709 41.9437 140.777 41.7344ZM132.421 47.0331C132.58 47.0048 132.739 47.0048 132.891 47.0388C132.495 49.1198 132.138 51.2122 131.753 53.2933C131.713 53.5137 131.436 53.4346 131.283 53.4176C131.277 53.3781 131.271 53.2932 131.266 53.248C131.623 51.2575 131.968 49.2612 132.348 47.2707C132.376 47.1914 132.399 47.1123 132.421 47.0331Z" fill="#0D69B3" stroke="#0D69B3" stroke-width="0.00401633"/>
<path d="M141.279 22.234C141.234 22.1492 141.228 22.0474 141.228 21.9513L141.183 21.9569C141.115 21.7081 140.905 21.4706 140.633 21.4593C140.429 21.4423 140.174 21.448 140.055 21.6403C139.829 21.9456 139.936 22.3358 139.925 22.6808C139.925 22.7034 139.931 22.743 139.931 22.7656C139.931 22.9974 139.902 23.2236 139.863 23.4498C139.829 23.5177 139.812 23.5912 139.812 23.6704C139.716 24.202 139.523 24.7279 139.262 25.2085C139.211 25.2764 139.172 25.3499 139.155 25.4291C138.985 25.7231 138.781 25.9946 138.571 26.266C138.537 26.2943 138.509 26.3282 138.481 26.3621C138.333 26.5431 138.175 26.6958 138.01 26.8541C137.971 26.8767 137.942 26.905 137.908 26.9276C137.716 27.1142 137.501 27.2896 137.268 27.4309C137.24 27.4479 137.212 27.4705 137.178 27.4931C135.727 28.4488 133.966 28.8447 132.249 28.8616C130.793 28.9069 129.326 28.5958 128.012 27.9681C127.989 27.9568 127.933 27.9342 127.91 27.9229C127.689 27.8041 127.462 27.7024 127.258 27.5553C127.213 27.5327 127.168 27.5044 127.117 27.4818C126.907 27.3574 126.709 27.2217 126.522 27.0634C126.46 27.0068 126.392 26.9616 126.324 26.9107C126.12 26.7467 125.91 26.5714 125.735 26.3734C125.689 26.3226 125.644 26.2773 125.599 26.2321C124.981 25.5931 124.5 24.8127 124.245 23.9644C124.001 23.2915 124.035 22.5564 124.007 21.8495C123.803 21.5385 123.372 21.3632 123.033 21.5554C122.891 21.6572 122.874 21.8438 122.766 21.9739C122.591 23.84 123.389 25.7005 124.664 27.0464C124.664 27.0916 124.687 27.1199 124.726 27.1369C124.953 27.3461 125.174 27.561 125.4 27.7646C125.44 27.8042 125.485 27.8437 125.536 27.8777C125.763 28.0643 126.007 28.2339 126.245 28.4092C126.29 28.4432 126.335 28.4714 126.386 28.4997C126.698 28.6807 126.992 28.8956 127.327 29.02C127.349 29.0369 127.389 29.0652 127.411 29.0765C128.488 29.5911 129.649 29.9417 130.839 30.0548C130.969 30.0548 131.099 30.0661 131.23 30.0944C131.796 30.1283 132.363 30.1114 132.929 30.1001C134.679 29.9474 136.487 29.5233 137.948 28.4941L137.965 28.5167C138.01 28.4771 138.05 28.4432 138.095 28.4092C138.328 28.2396 138.554 28.0586 138.781 27.872C138.832 27.8324 138.889 27.7872 138.94 27.7363C139.189 27.4649 139.478 27.216 139.687 26.905L139.721 26.922C139.738 26.8937 139.767 26.8372 139.784 26.8089C139.976 26.5488 140.152 26.2773 140.322 26.0059C140.333 25.9889 140.361 25.9606 140.373 25.9437L140.35 25.9211C140.367 25.8984 140.407 25.8532 140.424 25.8306C140.735 25.1972 141.013 24.5356 141.109 23.8344C141.149 23.8174 141.172 23.7835 141.172 23.7439C141.177 23.5177 141.257 23.3028 141.234 23.0766C141.284 22.7995 141.29 22.5168 141.279 22.234Z" fill="white" stroke="white" stroke-width="0.00401633"/>
<mask id="mask0_7177_26061" style="mask-type:luminance" maskUnits="userSpaceOnUse" x="122" y="21" width="20" height="10">
<path d="M141.279 22.234C141.234 22.1492 141.228 22.0474 141.228 21.9513L141.183 21.9569C141.115 21.7081 140.905 21.4706 140.633 21.4593C140.429 21.4423 140.174 21.448 140.055 21.6403C139.829 21.9456 139.936 22.3358 139.925 22.6808C139.925 22.7034 139.931 22.743 139.931 22.7656C139.931 22.9974 139.902 23.2236 139.863 23.4498C139.829 23.5177 139.812 23.5912 139.812 23.6704C139.716 24.202 139.523 24.7279 139.262 25.2085C139.211 25.2764 139.172 25.3499 139.155 25.4291C138.985 25.7231 138.781 25.9946 138.571 26.266C138.537 26.2943 138.509 26.3282 138.481 26.3621C138.333 26.5431 138.175 26.6958 138.01 26.8541C137.971 26.8767 137.942 26.905 137.908 26.9276C137.716 27.1142 137.501 27.2896 137.268 27.4309C137.24 27.4479 137.212 27.4705 137.178 27.4931C135.727 28.4488 133.966 28.8447 132.249 28.8616C130.793 28.9069 129.326 28.5958 128.012 27.9681C127.989 27.9568 127.933 27.9342 127.91 27.9229C127.689 27.8041 127.462 27.7024 127.258 27.5553C127.213 27.5327 127.168 27.5044 127.117 27.4818C126.907 27.3574 126.709 27.2217 126.522 27.0634C126.46 27.0068 126.392 26.9616 126.324 26.9107C126.12 26.7467 125.91 26.5714 125.735 26.3734C125.689 26.3226 125.644 26.2773 125.599 26.2321C124.981 25.5931 124.5 24.8127 124.245 23.9644C124.001 23.2915 124.035 22.5564 124.007 21.8495C123.803 21.5385 123.372 21.3632 123.033 21.5554C122.891 21.6572 122.874 21.8438 122.766 21.9739C122.591 23.84 123.389 25.7005 124.664 27.0464C124.664 27.0916 124.687 27.1199 124.726 27.1369C124.953 27.3461 125.174 27.561 125.4 27.7646C125.44 27.8042 125.485 27.8437 125.536 27.8777C125.763 28.0643 126.007 28.2339 126.245 28.4092C126.29 28.4432 126.335 28.4714 126.386 28.4997C126.698 28.6807 126.992 28.8956 127.327 29.02C127.349 29.0369 127.389 29.0652 127.411 29.0765C128.488 29.5911 129.649 29.9417 130.839 30.0548C130.969 30.0548 131.099 30.0661 131.23 30.0944C131.796 30.1283 132.363 30.1114 132.929 30.1001C134.679 29.9474 136.487 29.5233 137.948 28.4941L137.965 28.5167C138.01 28.4771 138.05 28.4432 138.095 28.4092C138.328 28.2396 138.554 28.0586 138.781 27.872C138.832 27.8324 138.889 27.7872 138.94 27.7363C139.189 27.4649 139.478 27.216 139.687 26.905L139.721 26.922C139.738 26.8937 139.767 26.8372 139.784 26.8089C139.976 26.5488 140.152 26.2773 140.322 26.0059C140.333 25.9889 140.361 25.9606 140.373 25.9437L140.35 25.9211C140.367 25.8984 140.407 25.8532 140.424 25.8306C140.735 25.1972 141.013 24.5356 141.109 23.8344C141.149 23.8174 141.172 23.7835 141.172 23.7439C141.177 23.5177 141.257 23.3028 141.234 23.0766C141.284 22.7995 141.29 22.5168 141.279 22.234Z" fill="white"/>
</mask>
<g mask="url(#mask0_7177_26061)">
<path d="M122.328 22.0471C122.787 22.1909 123.842 21.8291 124.141 22.1602M122.593 23.442C123.033 23.2891 123.976 22.9272 124.367 23.1404M123.046 24.8369C123.258 24.9056 123.678 24.5326 123.886 24.4233C124.196 24.2606 124.514 24.1359 124.858 24.0829M123.725 26.3072C123.945 25.9959 124.208 25.7374 124.524 25.5163C124.839 25.2972 125.698 24.7119 126.067 24.9123M124.367 27.3628C124.617 27.1651 124.718 26.8155 124.979 26.6079C125.296 26.3567 125.78 26.3116 126.105 26.1563M125.434 28.145C125.509 27.5982 126.065 26.9385 126.596 26.9857M126.256 28.9084C126.536 28.8804 126.773 28.2538 126.963 28.0415C127.247 27.7234 127.542 27.6256 127.917 27.5135M127.88 29.587C127.862 29.1914 128.271 28.0571 128.748 28.1167M129.088 29.964C129.068 29.4965 129.31 28.0902 129.881 28.0414M130.334 30.718C130.226 30.0642 130.233 29.1183 130.75 28.6445M131.883 30.8688C131.825 30.3238 131.283 29.2221 131.883 28.7953M133.545 30.4918C133.286 30.1921 133.135 29.0096 133.242 28.6822M135.131 30.2279C134.931 29.8658 134.683 29.5258 134.608 29.1055C134.562 28.8543 134.642 28.4964 134.602 28.3052M136.453 29.6624C136.019 29.3795 135.899 28.3397 136.037 27.8905M137.737 29.0969C137.428 28.4369 137.1 27.9252 137.094 27.1742M138.983 27.8905C138.504 27.569 137.893 26.9843 137.963 26.3449M140.305 26.8727C139.577 26.7117 138.704 26.0618 138.265 25.4778M140.909 25.6286C140.384 25.5162 138.65 24.8407 138.756 24.1583M141.475 24.3091C140.744 24.0415 139.68 23.8008 139.096 23.2912M141.853 23.1027C141.392 23.142 140.732 22.9194 140.264 22.8388C139.744 22.7492 139.262 22.5743 138.756 22.4617M141.4 21.934C140.511 21.9871 139.678 21.6836 138.869 21.4062" stroke="#D1D1D1" stroke-width="0.0854538"/>
</g>
<path d="M27.7099 24.6462C28.5309 24.5225 29.4756 24.4452 30.1726 24.9554C30.6062 25.28 30.7611 25.8675 30.7301 26.3933C30.7611 27.2591 30.3584 28.1868 29.5842 28.6352C28.9026 29.0063 28.0818 29.037 27.3227 28.9598C26.8116 28.898 26.3006 28.6198 26.0373 28.1559C25.4486 26.8108 26.1766 24.909 27.7099 24.6462ZM3.14535 25.6203C3.19175 25.1564 3.60999 24.7389 4.09008 24.7545C7.66802 24.7545 11.2303 24.7699 14.7927 24.7545C15.1799 24.7236 15.5981 24.8936 15.7838 25.2337C16.0471 25.6976 15.8148 26.2078 15.7838 26.6871C15.6755 27.3364 15.7064 28.2023 14.9476 28.4496C12.3455 28.5269 9.7434 28.4496 7.1413 28.4805C6.89352 30.1193 6.6612 31.7428 6.41331 33.3662C6.41331 33.428 6.42888 33.5673 6.42888 33.629C8.33392 33.6136 10.239 33.629 12.144 33.6136C12.6707 33.5827 13.2281 34.0312 13.1817 34.5877C13.1353 35.1598 13.0113 35.7163 12.934 36.2884C12.8719 36.6749 12.5622 37.0305 12.1595 37.1078C10.0375 37.1542 7.88459 37.0615 5.76287 37.1542C5.42201 39.4888 5.01929 41.8234 4.66303 44.1581C4.61669 44.622 4.24485 45.024 3.78022 45.0393C2.89747 45.0548 2.01453 45.0548 1.13178 45.0393C0.558723 45.0548 0.0940307 44.4207 0.248852 43.8797C1.19392 37.7882 2.16964 31.7121 3.14535 25.6203ZM18.8815 24.7853C19.6869 24.7235 20.5077 24.7699 21.3132 24.7545C21.8089 24.7236 22.3045 25.11 22.3508 25.6203C22.3508 26.0222 22.2424 26.4242 22.196 26.8262C21.5455 30.9698 20.8795 35.1135 20.2289 39.2571C20.136 39.9219 19.9657 40.6331 20.167 41.3134C20.3994 41.9936 21.4369 41.6999 21.6848 42.411C21.8397 42.9832 21.6693 43.5861 21.6228 44.1737C21.5764 44.9467 20.6935 45.1167 20.0896 45.287C18.7731 45.5343 17.1777 45.3488 16.2329 44.2664C15.5514 43.478 15.5049 42.3647 15.6444 41.3753C16.4653 36.1185 17.2861 30.8617 18.1226 25.5893C18.1691 25.2028 18.4788 24.8472 18.8815 24.7853ZM49.6259 25.6203C49.6722 25.1564 50.0905 24.7545 50.5552 24.7545H52.9094C53.4979 24.7389 53.9782 25.3729 53.8387 25.9294C53.2967 29.3619 52.7391 32.7943 52.1971 36.2265C53.0179 36.1029 53.9473 35.9483 54.5203 35.2835C55.4805 34.2011 56.2705 32.949 56.859 31.6348C57.0603 31.1245 57.1688 30.3824 57.8348 30.2896C58.7177 30.2586 59.6159 30.2741 60.4988 30.2896C61.1029 30.2741 61.552 30.9544 61.3506 31.5109C61.1183 32.3305 60.7311 33.088 60.3285 33.8147C59.4301 35.2681 58.4389 36.7059 57.1378 37.85C57.7108 39.5662 58.4389 41.2361 59.0739 42.9214C59.2597 43.478 59.709 44.1273 59.2907 44.6686C58.8104 45.3179 57.9122 44.993 57.2462 45.0703C56.5492 44.993 55.5425 45.3487 55.1553 44.5602C54.4273 42.8749 53.8233 41.1434 53.0798 39.458C52.6461 39.4734 52.197 39.489 51.7632 39.4426C51.7324 39.5045 51.6704 39.628 51.6394 39.69C51.407 41.2361 51.1593 42.7822 50.9114 44.3282C50.8184 44.6993 50.5241 45.0241 50.1215 45.055C49.3007 45.0859 48.4643 45.0703 47.6279 45.0703C47.2716 45.0703 46.9464 44.8385 46.7915 44.5293C46.6366 44.2199 46.7294 43.8645 46.7761 43.5243C47.7363 37.5563 48.681 31.5882 49.6259 25.6203ZM92.668 27.3056C92.7765 26.8725 93.1946 26.5788 93.6284 26.5942C94.2479 26.6098 94.8829 26.5788 95.5178 26.6098C96.029 26.6252 96.4317 27.1354 96.3697 27.6301C96.2768 28.5115 96.0599 29.3928 95.998 30.274C96.602 30.274 97.2215 30.2586 97.8256 30.274C98.3677 30.274 98.8169 30.8306 98.7239 31.3562C98.6464 31.8357 98.538 32.2996 98.4606 32.7786C98.3831 33.1808 98.0425 33.5054 97.6553 33.5672C96.9118 33.6136 96.1839 33.5363 95.4559 33.6136C95.1462 35.6853 94.8054 37.757 94.4801 39.829C94.4336 40.3083 94.4027 40.8494 94.6815 41.2669C95.0997 41.7771 95.8275 41.5915 96.4162 41.6534C96.8809 41.7925 97.1751 42.3029 97.0976 42.7668C97.0202 43.2923 97.0047 43.818 96.8809 44.3282C96.695 44.9002 96.029 45.0085 95.5178 45.1476C94.1084 45.5188 92.4821 45.5188 91.2277 44.6993C90.0661 43.9107 89.8801 42.3801 90.004 41.0813C90.3292 38.5765 90.8405 36.0873 91.1192 33.5672C90.6855 33.5825 90.1589 33.6445 89.8337 33.2579C89.462 32.8714 89.6478 32.2993 89.7098 31.8199C89.8028 31.3097 89.7872 30.6449 90.3448 30.3666C90.7939 30.1964 91.3052 30.3203 91.7853 30.2583C92.0795 29.269 92.3583 28.2796 92.668 27.3056ZM83.9171 32.3149C84.8929 31.3408 86.0699 30.5368 87.4174 30.135C88.0059 29.8721 88.7649 30.3669 88.7495 31.0162C88.6411 31.8666 88.4397 32.7014 88.3003 33.5363C88.2382 33.9538 87.882 34.3094 87.4638 34.3558C85.946 34.6185 84.6295 35.5306 83.5763 36.613C83.313 36.9378 82.9258 37.247 82.8793 37.6953C82.5542 39.8599 82.2134 42.0245 81.8726 44.189C81.8262 44.6528 81.4234 45.1013 80.9433 45.0704H78.589C78.047 45.1013 77.5669 44.5603 77.6288 44.019C78.3103 39.7362 78.9919 35.469 79.6578 31.1861C79.6888 30.7533 79.9986 30.3359 80.4476 30.2894C81.0208 30.2585 81.5938 30.274 82.1824 30.274C82.647 30.274 83.0806 30.6914 83.0806 31.1708C83.0806 31.8356 83.0188 32.5158 83.0032 33.1961C83.375 32.9643 83.6073 32.5932 83.9171 32.3149ZM26.0216 30.3513C26.858 30.1813 27.7253 30.3205 28.5617 30.274C29.0419 30.2123 29.553 30.5214 29.6304 31.0008C29.6925 31.4336 29.5683 31.8511 29.5219 32.2686C28.887 36.2422 28.2518 40.2157 27.6323 44.1892C27.5859 44.6377 27.2143 45.086 26.734 45.0704C25.8977 45.0704 25.0613 45.086 24.2096 45.0551C23.6829 44.9931 23.2956 44.3903 23.4351 43.88C24.1011 39.752 24.7362 35.6392 25.4022 31.511C25.4332 31.0626 25.557 30.5368 26.0216 30.3513ZM76.1419 30.5525C73.8341 30.1194 71.48 29.8102 69.1411 30.0421C67.0502 30.305 64.9438 31.2482 63.6584 32.9643C61.8772 35.2216 61.2731 38.2521 61.6757 41.0661C61.8927 42.4112 62.4811 43.7718 63.5809 44.6066C64.6031 45.3952 65.9816 45.5033 67.2207 45.3024C68.9552 44.9622 70.4266 43.8492 71.6348 42.6122C71.6967 43.1378 71.5728 43.6636 71.6038 44.1738C71.6348 44.6529 72.0685 45.1013 72.5485 45.0704H74.1285C74.5931 45.0704 74.9804 44.6377 75.0114 44.1891C75.6773 39.9992 76.3433 35.8246 76.9938 31.6501C77.0866 31.1244 76.6686 30.6142 76.1419 30.5525ZM71.7898 37.8346C71.1702 38.9942 70.3028 40.0456 69.327 40.9422C68.7695 41.406 68.0569 41.8854 67.2982 41.7309C66.5547 41.5763 66.1984 40.8032 66.0281 40.1383C65.6409 38.4067 65.9971 36.5203 66.9728 35.0207C67.4065 34.3248 68.1034 33.7992 68.9089 33.5827C70.0395 33.3044 71.2322 33.4435 72.3319 33.7528L72.3938 33.8147C72.2544 35.1598 71.9911 36.4895 71.7898 37.8346ZM45.7384 35.5155C45.7228 33.9693 45.3047 32.3459 44.2205 31.1863C43.4771 30.3669 42.3619 29.9494 41.2777 29.9647C39.481 29.903 37.7928 30.7844 36.4764 31.9593C36.182 32.1913 35.9807 32.5315 35.6555 32.7169C35.6555 32.2066 35.7019 31.6965 35.6863 31.1708C35.7019 30.6914 35.2527 30.274 34.7881 30.274H33.2082C32.7127 30.274 32.3099 30.707 32.2789 31.1862C31.3032 37.3707 30.312 43.5552 29.3362 49.7397C29.1969 50.3117 29.6926 50.8993 30.2811 50.8838C31.1484 50.8684 32.0313 50.9457 32.8831 50.8219C33.5646 50.6363 33.549 49.8478 33.6575 49.2758C33.9053 47.9152 34.0758 46.5546 34.2306 45.1785C37.2818 45.766 40.8286 45.3642 43.1054 43.0603C44.9639 41.0351 45.8312 38.2366 45.7384 35.5155ZM41.4016 37.077C41.3088 38.4994 40.7976 39.9373 39.8064 40.9731C38.5209 42.1947 36.5692 42.0245 34.9895 41.6072C34.9586 41.5607 34.912 41.4679 34.8965 41.4217C35.1443 40.0765 35.2683 38.7159 35.5781 37.3862C36.4454 35.9639 37.4985 34.5258 39.0009 33.7374C39.5585 33.4746 40.3174 33.5365 40.7201 34.0467C41.4016 34.897 41.4636 36.0411 41.4016 37.077Z" fill="#107BD4" stroke="#107BD4" stroke-width="0.00431541"/>
<defs>
<linearGradient id="paint0_linear_7177_26061" x1="132.013" y1="20.2656" x2="132.013" y2="53.5033" gradientUnits="userSpaceOnUse">
<stop stop-color="#F7E830"/>
<stop offset="1" stop-color="#FDCB06"/>
</linearGradient>
<radialGradient id="paint1_radial_7177_26061" cx="0" cy="0" r="1" gradientUnits="userSpaceOnUse" gradientTransform="translate(131.837 35.4184) scale(27.0826 27.0352)">
<stop offset="0.596" stop-color="#F29405"/>
<stop offset="0.736" stop-color="#F7D01E"/>
<stop offset="1" stop-color="#FDCB06"/>
</radialGradient>
<linearGradient id="paint2_linear_7177_26061" x1="141.272" y1="21.4605" x2="141.282" y2="23.0345" gradientUnits="userSpaceOnUse">
<stop stop-color="#FADA1C"/>
<stop offset="1" stop-color="#FDCB06"/>
</linearGradient>
<linearGradient id="paint3_linear_7177_26061" x1="122.73" y1="21.3824" x2="122.721" y2="22.9564" gradientUnits="userSpaceOnUse">
<stop stop-color="#FADA1C"/>
<stop offset="1" stop-color="#FDCB06"/>
</linearGradient>
</defs>
</svg>
