<svg width="58" height="67" viewBox="0 0 58 67" fill="none" xmlns="http://www.w3.org/2000/svg">
<path d="M29.3794 56.474L38.5636 28.2109H20.1953L29.3794 56.474Z" fill="#E24329"/>
<path d="M29.3818 56.474L20.1977 28.2109H7.32812L29.3818 56.474Z" fill="#FC6D26"/>
<path d="M7.32945 28.2109L4.53823 36.8001C4.41425 37.1819 4.41434 37.5932 4.5385 37.9749C4.66266 38.3567 4.9045 38.6893 5.22935 38.9252L29.3831 56.4812L7.32945 28.2109Z" fill="#FCA326"/>
<path d="M7.32812 28.2081H20.1977L14.6669 11.1865C14.6045 10.996 14.4835 10.83 14.3211 10.7123C14.1588 10.5946 13.9634 10.5312 13.7629 10.5312C13.5624 10.5312 13.367 10.5946 13.2046 10.7123C13.0423 10.83 12.9213 10.996 12.8589 11.1865L7.32812 28.2081Z" fill="#E24329"/>
<path d="M29.3828 56.474L38.5669 28.2109H51.4365L29.3828 56.474Z" fill="#FC6D26"/>
<path d="M51.4365 28.2109L54.2277 36.8001C54.3517 37.1819 54.3516 37.5932 54.2274 37.9749C54.1033 38.3567 53.8614 38.6893 53.5366 38.9252L29.3828 56.4812L51.4365 28.2109Z" fill="#FCA326"/>
<path d="M51.4398 28.2099H38.5703L44.1011 11.1865C44.1635 10.996 44.2845 10.83 44.4468 10.7123C44.6092 10.5946 44.8046 10.5312 45.0051 10.5312C45.2056 10.5312 45.401 10.5946 45.5633 10.7123C45.7257 10.83 45.8467 10.996 45.9091 11.1865L51.4398 28.2099Z" fill="#E24329"/>
</svg>
