<svg width="66" height="67" viewBox="0 0 66 67" fill="none" xmlns="http://www.w3.org/2000/svg">
<path d="M52.6803 33.9753C52.6803 32.632 52.5503 31.2453 52.3336 29.9453H33.5703V37.6153H44.317C43.8836 40.0853 42.4536 42.252 40.3303 43.6386L46.7436 48.622C50.5136 45.112 52.6803 39.9986 52.6803 33.9753Z" fill="#4280EF"/>
<path d="M33.5635 53.3849C38.9369 53.3849 43.4435 51.6082 46.7369 48.5749L40.3235 43.6349C38.5469 44.8482 36.2502 45.5416 33.5635 45.5416C28.3635 45.5416 23.9869 42.0316 22.3835 37.3516L15.7969 42.4216C19.1769 49.1382 26.0235 53.3849 33.5635 53.3849Z" fill="#34A353"/>
<path d="M22.3867 37.3103C21.5633 34.8403 21.5633 32.1536 22.3867 29.6836L15.8 24.5703C12.9833 30.2036 12.9833 36.8336 15.8 42.4236L22.3867 37.3103Z" fill="#F6B704"/>
<path d="M33.5635 21.4968C36.3802 21.4535 39.1535 22.5368 41.1902 24.4868L46.8669 18.7668C43.2702 15.3868 38.5035 13.5668 33.5635 13.6101C26.0235 13.6101 19.1769 17.8568 15.7969 24.5735L22.3835 29.6868C23.9869 24.9635 28.3635 21.4968 33.5635 21.4968Z" fill="#E54335"/>
</svg>
