<svg width="153" height="67" viewBox="0 0 153 67" fill="none" xmlns="http://www.w3.org/2000/svg">
<path fill-rule="evenodd" clip-rule="evenodd" d="M5.81353 19.4997C5.42259 19.2626 4.95209 19.1406 4.39874 19.1406C3.82105 19.1406 3.35022 19.2626 2.98592 19.4997C2.62228 19.739 2.4375 20.052 2.4375 20.4308V46.4865C2.4375 46.8169 2.62656 47.1171 3.00565 47.3959C3.38179 47.6751 3.84538 47.8142 4.39874 47.8142C4.92776 47.8142 5.39136 47.6751 5.79413 47.3959C6.1946 47.1201 6.39845 46.8173 6.39845 46.4865V20.4331C6.39845 20.052 6.20413 19.744 5.81353 19.4997Z" fill="white"/>
<path fill-rule="evenodd" clip-rule="evenodd" d="M9.08704 33.1838C8.84933 33.406 8.7474 33.7437 8.79113 34.2053C8.8319 34.6623 9.04331 35.0977 9.41715 35.5083C9.79296 35.9216 10.2128 36.1807 10.6935 36.2905C11.167 36.398 11.5263 36.3392 11.7637 36.1192L13.8608 34.8113V46.4972C13.8608 46.8276 14.0429 47.1278 14.4115 47.4066C14.7709 47.6858 15.2321 47.8248 15.7855 47.8248C16.3389 47.8248 16.8166 47.6858 17.2174 47.4066C17.6202 47.1278 17.8217 46.8279 17.8217 46.4972V30.7859C17.8217 30.4045 17.6251 30.0968 17.2368 29.8597C16.8482 29.6177 16.3655 29.5 15.7855 29.5C15.2078 29.5 14.7442 29.6177 14.3898 29.8597L9.08704 33.1838Z" fill="white"/>
<path fill-rule="evenodd" clip-rule="evenodd" d="M24.706 42.4153C24.706 43.2173 24.9273 43.8209 25.3758 44.2365C25.8226 44.6498 26.4101 44.8573 27.1308 44.8573C28.0751 44.8573 28.9777 44.4565 29.8342 43.6545C30.6936 42.8503 31.1207 42.0027 31.1207 41.0979V39.7097H30.1886C29.0701 39.7097 28.155 39.7584 27.4465 39.859C26.7376 39.9586 26.1044 40.223 25.5434 40.6481C24.9852 41.0735 24.706 41.665 24.706 42.4153ZM20.75 42.9039C20.75 40.8976 21.4973 39.5019 22.9878 38.7148C24.4824 37.9227 26.6452 37.5295 29.4797 37.5295H31.1201V36.8348C31.1201 35.7054 30.8166 34.7331 30.2073 33.9115C29.5984 33.0902 28.6735 32.6818 27.4287 32.6818C26.3585 32.6818 25.4165 32.887 24.611 33.3003C23.8005 33.7132 23.3613 33.921 23.286 33.921C22.8635 33.921 22.5215 33.7129 22.2591 33.3003C21.9971 32.887 21.8682 32.43 21.8682 31.9289C21.8682 31.2785 22.4706 30.714 23.6792 30.2372C24.8826 29.7605 26.1596 29.5234 27.5014 29.5234C30.0643 29.5234 31.9595 30.2175 33.1924 31.6086C34.4231 33.0017 35.0422 34.7351 35.0422 36.8147V46.2448C35.0422 46.5995 34.8601 46.9043 34.4981 47.171C34.1387 47.4301 33.6827 47.5622 33.1365 47.5622C32.6365 47.5622 32.2169 47.4297 31.87 47.171C31.5205 46.9043 31.3456 46.5995 31.3456 46.2448V44.9299C29.6786 46.8859 27.8022 47.8631 25.7128 47.8631C24.2691 47.8631 23.0798 47.4376 22.1477 46.5824C21.2162 45.7348 20.75 44.5051 20.75 42.9039Z" fill="white"/>
<path fill-rule="evenodd" clip-rule="evenodd" d="M38.4453 40.3834V37.0008C38.4453 34.7716 39.0907 32.9702 40.3868 31.5915C41.6777 30.2132 43.6047 29.5234 46.1676 29.5234C47.784 29.5234 49.1409 29.8049 50.2351 30.3691C51.3296 30.9313 51.8781 31.5669 51.8781 32.2659C51.8781 32.694 51.7206 33.1188 51.4122 33.5442C51.0992 33.9697 50.7326 34.1847 50.3104 34.1847C50.1864 34.1847 49.7445 33.9943 48.9854 33.6202C48.2282 33.2457 47.3884 33.0556 46.4688 33.0556C43.731 33.0556 42.3622 34.3754 42.3622 37.0126V40.3762C42.3622 43.0131 43.7428 44.3332 46.505 44.3332C47.4493 44.3332 48.2982 44.1306 49.0603 43.7298C49.8179 43.3287 50.2713 43.1262 50.4245 43.1262C50.9193 43.1262 51.3247 43.3287 51.6354 43.7298C51.9458 44.1306 52.0987 44.5581 52.0987 45.0055C52.0987 45.7072 51.5286 46.3602 50.3831 46.9586C49.2399 47.5622 47.8468 47.8631 46.2064 47.8631C43.6165 47.8631 41.6777 47.1815 40.3865 45.8124C39.0907 44.4482 38.4453 42.6369 38.4453 40.3834Z" fill="white"/>
<path fill-rule="evenodd" clip-rule="evenodd" d="M54.9688 46.2323V20.4186C54.9688 20.0422 55.141 19.7367 55.4909 19.4997C55.84 19.26 56.2964 19.1406 56.8715 19.1406C57.4416 19.1406 57.9223 19.26 58.306 19.4997C58.694 19.7367 58.8833 20.0422 58.8833 20.4186V37.14L66.6839 29.9243C66.9072 29.6994 67.1814 29.5843 67.5042 29.5843C67.9267 29.5843 68.3512 29.7875 68.7734 30.188C69.1978 30.5888 69.4069 31.0139 69.4069 31.4663C69.4069 31.7915 69.2952 32.068 69.0716 32.2923L64.2568 36.6142L70.1178 45.1056C70.2658 45.3305 70.341 45.5577 70.341 45.7829C70.341 46.2323 70.0912 46.6795 69.593 47.1171C69.0956 47.5524 68.6103 47.775 68.1368 47.775C67.7143 47.775 67.3678 47.5866 67.0936 47.2125L61.6087 39.0588L58.8833 41.5372V46.2327C58.8833 46.5602 58.6844 46.8584 58.2866 47.1372C57.891 47.413 57.4202 47.5505 56.8718 47.5505C56.3234 47.5505 55.8696 47.413 55.5103 47.1372C55.1486 46.8584 54.9688 46.5598 54.9688 46.2323Z" fill="white"/>
<path fill-rule="evenodd" clip-rule="evenodd" d="M75.6988 37.1892H81.8942C82.4403 37.1892 82.8069 37.1159 82.9937 36.9692C83.1834 36.8203 83.2731 36.5221 83.2731 36.0792C83.2731 35.0945 82.9138 34.2561 82.1931 33.5666C81.4697 32.8751 80.5767 32.5302 79.5062 32.5302C78.4603 32.5302 77.5647 32.858 76.8193 33.5107C76.0743 34.166 75.6985 34.9965 75.6985 36.0036V37.1892H75.6988ZM71.7812 40.3834V36.8147C71.7812 34.8351 72.5408 33.1267 74.0578 31.6843C75.5771 30.2445 77.4046 29.5234 79.5433 29.5234C81.5812 29.5234 83.3291 30.1764 84.7849 31.4788C86.2415 32.7818 86.9694 34.4244 86.9694 36.4139C86.9694 37.1813 86.882 37.8001 86.707 38.2719C86.5351 38.746 86.2586 39.0735 85.8874 39.2665C85.5135 39.4598 85.164 39.5795 84.8412 39.6331C84.516 39.6791 84.0961 39.7087 83.572 39.7087H75.6991V40.579C75.6991 41.84 76.1483 42.8421 77.0432 43.5901C77.9385 44.3328 79.1087 44.705 80.5527 44.705C81.572 44.705 82.533 44.4647 83.4405 43.9863C84.3506 43.5072 84.904 43.2676 85.1006 43.2676C85.525 43.2676 85.887 43.4678 86.1833 43.8686C86.4835 44.2697 86.6318 44.6607 86.6318 45.0374C86.6318 45.6579 86.0327 46.2813 84.8408 46.9168C83.6493 47.5451 82.1786 47.8627 80.4386 47.8627C77.9023 47.8627 75.825 47.1736 74.2084 45.795C72.5917 44.4144 71.7812 42.6133 71.7812 40.3834Z" fill="white"/>
<path fill-rule="evenodd" clip-rule="evenodd" d="M90.1484 46.2451V31.027C90.1484 30.6509 90.328 30.3454 90.6896 30.1084C91.0483 29.8687 91.5027 29.7487 92.0561 29.7487C92.5486 29.7487 92.9731 29.8687 93.32 30.1103C93.6698 30.3523 93.8421 30.6627 93.8421 31.0415V32.7134C94.2639 31.8286 94.9074 31.076 95.7662 30.4552C96.6233 29.8341 97.5597 29.5234 98.579 29.5234H99.7781C100.174 29.5234 100.52 29.6947 100.819 30.037C101.118 30.3793 101.268 30.7896 101.268 31.2713C101.268 31.7503 101.118 32.1709 100.819 32.5227C100.52 32.8797 100.174 33.056 99.7781 33.056H98.579C97.3897 33.056 96.3363 33.5689 95.4285 34.5931C94.5191 35.6169 94.0647 36.9419 94.0647 38.5649V46.25C94.0647 46.5749 93.8661 46.8754 93.4679 47.1489C93.0727 47.4248 92.5989 47.5622 92.0558 47.5622C91.5024 47.5622 91.048 47.4248 90.6893 47.1489C90.328 46.8711 90.1484 46.5726 90.1484 46.2451Z" fill="white"/>
<path fill-rule="evenodd" clip-rule="evenodd" d="M104.817 40.6506C104.817 41.9217 105.269 43.0511 106.176 44.0332C107.084 45.0189 108.174 45.5094 109.443 45.5094C110.735 45.5094 111.841 45.0189 112.763 44.0332C113.683 43.0511 114.144 41.9217 114.144 40.6506V36.5808C114.144 35.356 113.679 34.2612 112.744 33.2886C111.81 32.318 110.712 31.8317 109.443 31.8317C108.174 31.8317 107.084 32.318 106.176 33.2886C105.269 34.2615 104.817 35.3564 104.817 36.5808V40.6506ZM102.391 40.6627V36.5689C102.391 34.6646 103.087 33.0173 104.478 31.6269C105.873 30.2358 107.528 29.5391 109.443 29.5391C111.355 29.5391 113.025 30.2289 114.443 31.6095C115.86 32.9858 116.569 34.6383 116.569 36.5693V40.663C116.569 42.5408 115.856 44.1999 114.426 45.6446C112.996 47.0843 111.334 47.8031 109.444 47.8031C107.577 47.8031 105.934 47.0843 104.517 45.6446C103.099 44.1995 102.391 42.5401 102.391 40.6627Z" fill="white"/>
<path fill-rule="evenodd" clip-rule="evenodd" d="M119.523 46.5609V30.6658C119.523 30.3916 119.635 30.1743 119.858 30.0105C120.081 29.8468 120.367 29.7636 120.717 29.7636C121.016 29.7636 121.278 29.854 121.501 30.0326C121.724 30.2111 121.836 30.4261 121.836 30.6803V32.4331C122.26 31.619 122.906 30.9371 123.777 30.3798C124.646 29.8202 125.668 29.5391 126.835 29.5391C128.629 29.5391 130.182 30.2289 131.5 31.6095C132.818 32.9858 133.478 34.6383 133.478 36.5693V46.5616C133.478 46.8647 133.354 47.1041 133.104 47.275C132.854 47.4513 132.568 47.5417 132.245 47.5417C131.946 47.5417 131.675 47.4513 131.427 47.275C131.174 47.1041 131.053 46.8667 131.053 46.5665V36.5939C131.053 35.3689 130.592 34.2667 129.672 33.2942C128.75 32.321 127.655 31.8327 126.388 31.8327C125.218 31.8327 124.187 32.273 123.292 33.1449C122.396 34.0202 121.95 35.1716 121.95 36.5943V46.5668C121.95 46.816 121.821 47.0409 121.573 47.2408C121.326 47.4417 121.039 47.542 120.716 47.542C120.367 47.542 120.081 47.4417 119.857 47.2408C119.635 47.04 119.523 46.8151 119.523 46.5609Z" fill="white"/>
<path fill-rule="evenodd" clip-rule="evenodd" d="M138.713 37.5806H146.176C146.924 37.5806 147.418 37.5024 147.669 37.3386C147.916 37.1798 148.04 36.8326 148.04 36.3122C148.04 35.068 147.6 33.9731 146.714 33.0269C145.834 32.0783 144.72 31.6091 143.378 31.6091C142.084 31.6091 140.982 32.0543 140.074 32.9513C139.167 33.8459 138.713 34.9187 138.713 36.1629V37.5806H138.713ZM136.289 40.6627V36.4562C136.289 34.5742 136.988 32.9536 138.376 31.5874C139.772 30.2233 141.448 29.5391 143.415 29.5391C145.307 29.5391 146.941 30.1943 148.324 31.4944C149.702 32.8023 150.395 34.4328 150.395 36.3884C150.395 37.0871 150.312 37.6494 150.152 38.0745C149.987 38.4999 149.727 38.7955 149.365 38.974C149.007 39.15 148.676 39.2624 148.38 39.3117C148.08 39.3627 147.67 39.3873 147.148 39.3873H138.714V40.7755C138.714 42.2567 139.243 43.4394 140.298 44.3271C141.359 45.2168 142.721 45.664 144.388 45.664C145.23 45.664 145.972 45.5397 146.606 45.2852C147.239 45.0383 147.725 44.7838 148.06 44.5352C148.397 44.283 148.662 44.1588 148.863 44.1588C149.137 44.1588 149.38 44.2906 149.589 44.5523C149.802 44.8157 149.909 45.0751 149.909 45.322C149.909 45.8524 149.373 46.3949 148.302 46.9594C147.235 47.519 145.902 47.8031 144.31 47.8031C141.949 47.8031 140.019 47.1501 138.529 45.8307C137.034 44.5152 136.289 42.792 136.289 40.6627Z" fill="white"/>
</svg>
