<svg width="143" height="67" viewBox="0 0 143 67" fill="none" xmlns="http://www.w3.org/2000/svg">
<path d="M41.4298 59.0024C36.0759 58.9082 31.3729 57.1362 27.389 53.5244C25.1637 51.507 23.4852 49.097 22.3032 46.3408C21.5541 44.594 22.3152 42.6859 24.0447 41.92C25.6844 41.1942 27.6162 41.9339 28.3773 43.6382C29.1365 45.3378 30.1209 46.8792 31.4387 48.1888C33.332 50.0701 35.5757 51.3687 38.1913 51.9376C42.9974 52.9829 47.2755 51.8907 50.972 48.6267C52.4555 47.3168 53.5855 45.7347 54.3643 43.9164C54.8428 42.7993 55.5652 41.9692 56.7815 41.6838C58.0315 41.3905 59.1388 41.7064 60.0083 42.6499C60.9096 43.6281 61.1412 44.8019 60.6888 46.0482C60.152 47.5269 59.3603 48.8815 58.4587 50.1678C56.503 52.9589 53.9976 55.1292 50.9746 56.6908C48.724 57.8535 46.3332 58.5768 43.8108 58.8541C43.0198 58.941 42.2287 59.0068 41.4298 59.0024Z" fill="#E41D36"/>
<path d="M76.2502 18.3775C79.7785 18.3989 82.7319 19.6959 84.8899 22.516C88.3876 27.0871 87.2693 33.6226 82.506 36.8602C80.7876 38.0283 78.8923 38.6316 76.8169 38.728C73.9278 38.8625 71.3304 38.097 69.1183 36.2178C67.0403 34.4531 65.8517 32.2019 65.6026 29.4599C65.1269 24.2222 68.94 19.3915 74.2822 18.5296C74.934 18.425 75.5864 18.3614 76.2502 18.3775ZM71.9116 28.7217C71.899 28.9914 71.9255 29.3253 71.9942 29.6545C72.342 31.3226 73.2518 32.5563 74.8934 33.0937C76.5218 33.6267 78.0481 33.2739 79.2729 32.0897C80.9782 30.4415 81.2973 26.7153 78.645 24.8365C77.7283 24.1869 76.696 23.9563 75.6034 24.1419C73.3907 24.5177 71.9088 26.3565 71.9116 28.7217Z" fill="white"/>
<path d="M111.045 25.5878C111.045 27.1409 111.063 28.4086 111.039 29.6759C111.019 30.7177 110.933 31.7545 110.709 32.7799C110.136 35.4054 108.549 37.1046 106.038 37.9795C104.654 38.4614 103.224 38.6668 101.765 38.7302C100.101 38.8023 98.4679 38.6158 96.8723 38.1596C93.7142 37.2568 91.9642 35.1225 91.4923 31.8994C91.3823 31.1487 91.3338 30.3951 91.336 29.6353C91.3436 27.0382 91.3376 24.4408 91.3395 21.8434C91.3407 20.0439 92.7678 18.5586 94.5011 18.5472C96.3081 18.5356 97.773 19.9636 97.7875 21.7996C97.8073 24.3346 97.7881 26.87 97.796 29.405C97.801 31.0227 98.7644 32.3723 100.283 32.7153C102.031 33.1097 104.21 32.233 104.472 29.9276C104.511 29.5808 104.53 29.2358 104.53 28.888C104.53 26.5518 104.522 24.2155 104.534 21.8793C104.544 19.9576 106.071 18.4968 107.988 18.5482C109.45 18.5873 110.849 19.8704 110.986 21.3293C111.129 22.8411 111 24.3586 111.045 25.5878Z" fill="white"/>
<path d="M6.83999 21.6012C6.83999 24.9565 6.83999 28.3116 6.8403 31.667C6.8403 32.1801 6.84125 32.1814 7.34813 32.1814C9.75809 32.1817 12.1687 32.2217 14.5774 32.1663C15.9818 32.1338 17.3118 32.9293 17.5034 34.8453C17.602 35.832 17.4675 36.7188 16.7571 37.4682C16.167 38.0907 15.4289 38.3178 14.6058 38.3191C11.1029 38.3245 7.59983 38.326 4.09703 38.3191C2.49543 38.316 1.25831 37.6802 0.561785 36.1782C0.34032 35.7003 0.238251 35.1861 0.238251 34.6582C0.236361 26.9163 0.22754 19.1745 0.245181 11.4327C0.248332 9.9968 1.00786 8.9131 2.24845 8.29848C3.3879 7.73395 4.5491 8.00708 5.52159 8.80788C6.39769 9.52961 6.8466 10.4857 6.84345 11.6475C6.834 14.9651 6.83999 18.2833 6.83999 21.6012Z" fill="white"/>
<path d="M124.578 18.5335C126.875 18.5423 128.762 18.8327 130.522 19.7211C130.879 19.901 131.208 20.1206 131.504 20.3918C132.166 20.9992 132.368 21.7493 132.129 22.5945C131.885 23.4555 131.294 23.9765 130.412 24.1731C129.735 24.3243 129.08 24.1885 128.422 24.0569C127.327 23.8379 126.267 23.4637 125.157 23.3134C124.669 23.2472 124.187 23.2611 123.736 23.4838C123.058 23.8184 122.945 24.5067 123.471 25.046C123.712 25.293 124.011 25.4455 124.33 25.5529C125.613 25.9842 126.906 26.3859 128.181 26.8382C129.568 27.3306 130.847 28.0139 131.74 29.2407C133.409 31.5328 132.963 34.5618 130.722 36.5011C129.288 37.7423 127.598 38.3267 125.754 38.4754C123.663 38.6439 121.588 38.4741 119.56 37.897C118.394 37.565 117.357 36.9985 116.48 36.1499C115.298 35.0047 115.439 33.6271 116.25 32.7151C116.951 31.9253 117.892 31.731 118.904 31.8595C120.022 32.0012 121.052 32.4637 122.121 32.7841C122.753 32.9734 123.391 33.1262 124.045 33.2144C124.346 33.2551 124.641 33.2217 124.93 33.1407C125.566 32.9624 125.814 32.4788 125.606 31.8548C125.423 31.3104 125.008 31.0165 124.502 30.824C123.686 30.5143 122.822 30.3829 121.988 30.1404C120.961 29.8417 119.942 29.5251 118.986 29.0353C116.363 27.6901 115.493 24.4787 117.088 21.9953C118.172 20.3074 119.805 19.419 121.683 18.9178C122.743 18.634 123.828 18.513 124.578 18.5335Z" fill="white"/>
<path d="M43.7687 38.627C41.2025 38.5829 38.9857 38.1135 37.0971 36.6583C34.919 34.9805 33.6384 32.7249 33.2707 30.0191C32.7594 26.2574 34.1018 23.1597 36.961 20.7277C38.4359 19.4729 40.2231 18.8945 42.1394 18.7761C43.8179 18.6724 45.4926 18.7339 47.1093 19.2855C47.7126 19.4912 48.2847 19.7605 48.7774 20.1729C49.6818 20.9302 50.0825 21.9144 49.9969 23.0775C49.9052 24.3203 48.4731 25.3428 47.1972 25.0927C46.1869 24.8946 45.2034 24.5509 44.1802 24.4349C42.3946 24.2327 40.8018 24.6567 39.8063 26.2712C38.8174 27.8747 38.8011 29.5756 39.8479 31.1611C40.7826 32.5765 42.181 33.1357 43.8746 32.9662C44.6442 32.889 45.388 32.7044 46.1343 32.5179C46.6283 32.3944 47.1348 32.2999 47.6445 32.3576C49.1138 32.5245 49.9868 33.4892 50.0791 34.9915C50.1528 36.1886 49.5791 37.0068 48.5893 37.5763C47.659 38.1119 46.6323 38.3573 45.5776 38.4802C44.9006 38.5589 44.2186 38.5917 43.7687 38.627Z" fill="white"/>
<path d="M61.033 28.6278C61.033 30.8768 61.0343 33.1261 61.0327 35.3751C61.0311 37.2067 59.6289 38.635 57.8235 38.6482C55.9503 38.6618 54.5135 37.2785 54.5085 35.4104C54.4968 30.8749 54.4978 26.3395 54.5078 21.804C54.5119 19.9686 55.9699 18.5384 57.7857 18.5469C59.5804 18.5554 61.0311 20.0263 61.0324 21.8434C61.0346 24.1046 61.033 26.3662 61.033 28.6278Z" fill="white"/>
<path d="M22.0717 28.5869C22.0717 26.3379 22.0676 24.0889 22.0733 21.8399C22.0774 20.1744 23.1482 18.8988 24.7851 18.5901C26.2667 18.3107 27.809 19.2028 28.3884 20.6746C28.5216 21.013 28.5991 21.3658 28.5994 21.7281C28.6026 26.313 28.6139 30.8979 28.5944 35.4829C28.5875 37.0867 27.2518 38.5068 25.7157 38.636C23.9244 38.7866 22.4309 37.6988 22.1155 36.0014C22.0705 35.7598 22.0736 35.5068 22.0733 35.2592C22.0705 33.0354 22.0717 30.811 22.0717 28.5869Z" fill="white"/>
<path d="M54.5156 11.6152C54.5159 9.80532 55.9373 8.36122 57.7358 8.3439C59.5082 8.32657 61.0257 9.83051 61.0298 11.6085C61.0339 13.3973 59.535 14.9059 57.7629 14.8959C55.9436 14.8855 54.5153 13.4423 54.5156 11.6152Z" fill="#E41D36"/>
<path d="M22.0781 11.6119C22.0813 9.81085 23.5386 8.33841 25.3122 8.34376C27.111 8.34912 28.5942 9.8244 28.5973 11.6116C28.6005 13.4025 27.1101 14.9017 25.3324 14.896C23.5254 14.8904 22.075 13.4267 22.0781 11.6119Z" fill="#E41D36"/>
<path d="M112.978 48.4764C112.805 48.5423 112.767 48.7121 112.685 48.8416C112.379 49.3239 112.08 49.8106 111.78 50.296C111.469 50.7985 111.345 50.8004 111.041 50.3099C110.72 49.7929 110.4 49.2753 110.075 48.7615C110.011 48.661 109.976 48.5313 109.841 48.4786C109.724 48.5914 109.775 48.736 109.773 48.8636C109.767 49.4719 109.774 50.0806 109.769 50.6892C109.766 51.1973 109.711 51.2503 109.22 51.2528C108.947 51.254 108.674 51.2477 108.4 51.2531C108.153 51.2578 108.033 51.1463 108.033 50.8971C108.033 49.1336 108.034 47.3704 108.031 45.6068C108.031 45.3384 108.158 45.219 108.421 45.2354C108.446 45.237 108.471 45.2345 108.496 45.2351C109.848 45.26 109.509 45.0404 110.285 46.1625C110.589 46.6017 110.893 47.0405 111.187 47.486C111.342 47.7201 111.466 47.727 111.625 47.4885C112.038 46.8688 112.471 46.2621 112.878 45.638C113.066 45.3488 113.293 45.1992 113.646 45.2307C113.893 45.2528 114.143 45.2433 114.391 45.2335C114.68 45.2222 114.79 45.3605 114.789 45.639C114.785 47.3776 114.785 49.1159 114.789 50.8546C114.79 51.1368 114.671 51.2644 114.386 51.255C114.088 51.2449 113.789 51.2402 113.492 51.2566C113.163 51.2748 113.046 51.1101 113.046 50.8098C113.047 50.164 113.048 49.5182 113.042 48.8727C113.041 48.7423 113.085 48.6002 112.978 48.4764Z" fill="white"/>
<path d="M87.8342 48.2213C87.8342 47.9519 87.8342 47.6826 87.8342 47.4132C87.8342 46.8172 87.849 46.2205 87.8289 45.6251C87.8169 45.2688 87.9467 45.1245 88.3039 45.1516C88.5755 45.1721 88.8499 45.1627 89.123 45.1545C89.3842 45.1469 89.5203 45.2556 89.5203 45.524C89.5196 47.3121 89.5196 49.1005 89.5193 50.8886C89.5193 51.1328 89.4009 51.2572 89.1517 51.2474C89.1145 51.2459 89.0773 51.249 89.0399 51.2484C87.6333 51.2203 87.9735 51.4582 87.1431 50.2916C86.6967 49.6647 86.2497 49.0381 85.8017 48.4122C85.7384 48.324 85.6675 48.2411 85.596 48.1507C85.4372 48.2679 85.5011 48.4156 85.5002 48.5385C85.493 49.2958 85.4892 50.0535 85.4996 50.8108C85.504 51.1274 85.3821 51.2688 85.0592 51.2509C84.787 51.2361 84.5123 51.2345 84.2404 51.2512C83.9166 51.2711 83.8025 51.1356 83.8047 50.8149C83.8145 49.2999 83.8088 47.785 83.8088 46.27C83.8088 46.034 83.8198 45.7974 83.8066 45.5624C83.7893 45.2528 83.9292 45.1453 84.2287 45.1523C85.7831 45.1885 85.3313 44.9349 86.215 46.149C86.646 46.7413 87.0624 47.3439 87.4864 47.9409C87.5633 48.0489 87.6462 48.1529 87.7265 48.2584C87.7624 48.2468 87.7983 48.2342 87.8342 48.2213Z" fill="white"/>
<path d="M65.3375 48.1869C65.3371 47.3553 65.3337 46.5239 65.3384 45.6922C65.3412 45.2128 65.4033 45.1545 65.8746 45.1538C66.7182 45.1526 67.5622 45.1397 68.4055 45.1589C69.475 45.1828 70.1668 45.8945 70.1328 46.8928C70.1202 47.2649 69.951 47.5575 69.7009 47.8121C69.5834 47.9318 69.4984 48.0241 69.6893 48.163C70.3748 48.662 70.451 49.3497 70.2232 50.0938C69.9945 50.8414 69.4073 51.1911 68.6771 51.227C67.6869 51.2758 66.6927 51.2424 65.7001 51.2449C65.357 51.2459 65.34 51.0014 65.339 50.7563C65.3356 49.8998 65.3378 49.0432 65.3375 48.1869ZM67.7165 49.7082C67.8293 49.7003 67.967 49.7029 68.0996 49.6783C68.3094 49.6392 68.4893 49.5268 68.4944 49.2987C68.4991 49.0753 68.34 48.9342 68.1242 48.8992C67.9308 48.868 67.7314 48.8602 67.5348 48.8627C67.1347 48.8677 66.9665 49.0993 67.0934 49.4701C67.198 49.7782 67.4721 49.6786 67.7165 49.7082ZM67.6554 46.7047C67.6554 46.7032 67.6554 46.7016 67.6554 46.6997C67.5817 46.6997 67.5077 46.6972 67.434 46.7C67.1974 46.7098 67.0783 46.8248 67.0755 47.0714C67.0723 47.3354 67.1961 47.4605 67.4519 47.4617C67.6116 47.4624 67.7739 47.4699 67.9301 47.4447C68.1447 47.4101 68.2997 47.2879 68.2874 47.0487C68.2757 46.8241 68.1053 46.7422 67.9131 46.7069C67.83 46.6918 67.7414 46.7047 67.6554 46.7047Z" fill="white"/>
<path d="M77.9176 48.1887C77.9173 47.3447 77.9161 46.5008 77.9179 45.6568C77.9192 45.1817 77.9431 45.1588 78.4305 45.1578C79.2121 45.1562 79.9937 45.1553 80.7752 45.1578C81.7065 45.1606 82.4345 45.6464 82.7464 46.468C83.0791 47.3438 82.8781 48.418 82.2266 48.9769C81.9642 49.2021 81.9931 49.3534 82.1818 49.5846C82.5032 49.9787 82.8059 50.3879 83.1143 50.7924C83.189 50.8904 83.286 50.9943 83.2309 51.1266C83.1632 51.2886 83.0012 51.2508 82.8715 51.2479C81.0059 51.2054 81.6107 51.5504 80.4577 50.0451C80.3528 49.9081 80.2523 49.7626 80.1244 49.6498C80.0258 49.5628 79.8897 49.5002 79.7467 49.5817C79.621 49.6536 79.6068 49.7764 79.6065 49.9047C79.6059 50.2272 79.6018 50.5501 79.6046 50.8727C79.6068 51.1361 79.4868 51.259 79.2193 51.2514C78.9219 51.2432 78.6233 51.2385 78.3262 51.253C78.0172 51.2681 77.9104 51.1317 77.9142 50.8321C77.9246 49.9513 77.9176 49.0698 77.9176 48.1887ZM80.2674 47.8573C80.2674 47.8579 80.2674 47.8582 80.2674 47.8589C80.3906 47.8589 80.5147 47.8686 80.637 47.857C81.0953 47.8132 81.3001 47.443 81.0959 47.0363C80.9337 46.7125 79.9401 46.5471 79.6938 46.8063C79.6544 46.8476 79.6197 46.9122 79.6175 46.9673C79.6087 47.1888 79.6065 47.4112 79.6153 47.6327C79.621 47.7795 79.7205 47.8507 79.8613 47.8563C79.9962 47.8617 80.132 47.8573 80.2674 47.8573Z" fill="white"/>
<path d="M73.996 51.3204C72.2353 51.3207 70.835 49.9359 70.8359 48.1956C70.8372 46.4583 72.24 45.0772 74.0032 45.0781C75.7658 45.0791 77.1447 46.4602 77.1409 48.2215C77.1375 49.9434 75.7406 51.3198 73.996 51.3204ZM75.4004 48.1938C75.3985 47.3224 74.7823 46.6693 73.967 46.6747C73.1835 46.6797 72.5762 47.3492 72.5796 48.2038C72.5831 49.0598 73.1917 49.7216 73.9771 49.7235C74.7851 49.7257 75.402 49.0626 75.4004 48.1938Z" fill="white"/>
<path d="M101.325 51.3193C99.5907 51.3184 98.1992 49.9307 98.1876 48.2078C98.1759 46.4622 99.7117 45.0068 101.381 45.0641C103.115 45.1237 104.496 46.4663 104.494 48.2075C104.493 49.949 103.097 51.3203 101.325 51.3193ZM102.754 48.2078C102.757 47.3323 102.147 46.673 101.336 46.6733C100.548 46.6736 99.9357 47.3349 99.9328 48.1873C99.9303 49.0448 100.534 49.7159 101.315 49.7225C102.128 49.7297 102.751 49.0735 102.754 48.2078Z" fill="white"/>
<path d="M116.033 48.1817C116.032 47.3497 116.029 46.5177 116.034 45.686C116.037 45.21 116.094 45.158 116.577 45.1574C117.794 45.1561 119.01 45.1555 120.226 45.1577C120.657 45.1583 120.726 45.2226 120.733 45.6514C120.752 46.9124 120.735 46.6843 119.739 46.6995C119.218 46.7073 118.696 46.7042 118.175 46.7004C117.924 46.6985 117.777 46.7839 117.77 47.0633C117.763 47.355 117.905 47.4678 118.176 47.4675C118.76 47.4669 119.344 47.481 119.926 47.4644C120.269 47.4546 120.388 47.5967 120.384 47.9278C120.369 49.1869 120.5 48.9982 119.324 49.0124C118.952 49.0168 118.579 49.0152 118.207 49.0127C117.975 49.0111 117.781 49.0477 117.774 49.3432C117.768 49.6582 117.972 49.7055 118.219 49.7058C118.901 49.7058 119.584 49.7187 120.266 49.7017C120.611 49.6932 120.733 49.8463 120.735 50.1663C120.747 51.4829 120.751 51.2365 119.699 51.2482C118.644 51.2598 117.589 51.2522 116.534 51.2497C116.103 51.2488 116.038 51.1896 116.035 50.7526C116.029 49.8954 116.033 49.0385 116.033 48.1817Z" fill="white"/>
<path d="M126.568 51.2478C126.431 51.2478 126.293 51.2337 126.159 51.2507C125.784 51.2973 125.538 51.1568 125.416 50.7926C125.324 50.5166 125.105 50.4262 124.832 50.4281C124.434 50.4306 124.037 50.4344 123.64 50.4269C123.345 50.4212 123.133 50.5321 123.032 50.8162C122.91 51.1612 122.67 51.2825 122.311 51.2535C121.99 51.2277 121.666 51.2526 121.343 51.2466C120.928 51.2387 120.871 51.1451 121.047 50.7309C121.613 49.4065 122.185 48.0853 122.756 46.7628C122.928 46.3636 123.104 45.9667 123.273 45.5663C123.371 45.3338 123.528 45.222 123.789 45.2276C125.292 45.2613 124.937 44.9977 125.519 46.3211C126.154 47.7642 126.77 49.2156 127.395 50.6631C127.613 51.1694 127.564 51.2453 127.015 51.2478C126.866 51.2485 126.717 51.2478 126.568 51.2478ZM124.236 47.7876C124.113 48.0695 124.033 48.2481 123.958 48.429C123.753 48.9264 123.808 48.9919 124.356 48.9604C124.587 48.9472 124.683 48.8716 124.585 48.6384C124.48 48.3889 124.379 48.1382 124.236 47.7876Z" fill="white"/>
<path d="M139.65 16.7151C139.872 15.8796 140.108 15.0476 140.308 14.2068C140.388 13.8719 140.525 13.7428 140.885 13.7488C141.995 13.7677 141.996 13.7519 141.996 14.875C141.996 15.9933 141.981 17.1117 142.003 18.2297C142.011 18.6367 141.802 18.66 141.491 18.6594C141.183 18.6588 140.971 18.6415 140.982 18.2307C141.008 17.2805 140.991 16.3292 140.948 15.3727C140.708 16.3206 140.443 17.2632 140.239 18.2187C140.148 18.643 139.908 18.6506 139.572 18.6629C139.224 18.6758 139.061 18.5649 138.984 18.2168C138.78 17.3111 138.542 16.4133 138.257 15.5186C138.257 16.3918 138.26 17.2648 138.255 18.138C138.254 18.3037 138.324 18.5321 138.132 18.609C137.891 18.7051 137.616 18.6849 137.364 18.6118C137.236 18.5747 137.261 18.4266 137.261 18.3182C137.259 16.9019 137.262 15.4852 137.258 14.0688C137.257 13.8499 137.338 13.7406 137.563 13.7588C137.575 13.7598 137.588 13.7588 137.6 13.7585C138.765 13.7078 138.767 13.7069 139.075 14.8239C139.249 15.4534 139.413 16.085 139.581 16.7157C139.604 16.7154 139.627 16.7151 139.65 16.7151Z" fill="white"/>
<path d="M95.6337 45.1544C96.2673 45.1544 96.9011 45.1677 97.534 45.1491C97.878 45.139 98.0232 45.2433 98.0226 45.6122C98.0207 46.6786 98.0336 46.6902 96.9701 46.6924C96.6081 46.693 96.4934 46.8335 96.4972 47.1807C96.5098 48.3485 96.5042 49.5166 96.5007 50.6845C96.4991 51.1964 96.4471 51.2452 95.9532 51.2474C95.7172 51.2487 95.4803 51.2335 95.2453 51.2506C94.8903 51.2767 94.7557 51.1245 94.7589 50.773C94.7693 49.6052 94.7633 48.437 94.762 47.2692C94.7614 46.7223 94.7387 46.7031 94.1953 46.6978C93.1352 46.6877 93.202 46.8518 93.2049 45.6913C93.2061 45.2008 93.2515 45.1563 93.7335 45.1548C94.367 45.1529 95.0002 45.1544 95.6337 45.1544Z" fill="white"/>
<path d="M129.239 45.1524C129.897 45.1527 130.556 45.1613 131.213 45.1487C131.513 45.143 131.653 45.2495 131.636 45.5594C131.622 45.8197 131.628 46.0811 131.634 46.342C131.64 46.5959 131.521 46.7043 131.272 46.6964C131.061 46.6898 130.85 46.6948 130.638 46.6964C130.163 46.6998 130.122 46.7361 130.121 47.202C130.118 48.3326 130.121 49.4633 130.119 50.5942C130.118 51.223 130.095 51.2498 129.472 51.2441C128.267 51.2334 128.384 51.4124 128.381 50.1504C128.378 49.1564 128.37 48.1622 128.385 47.1683C128.391 46.8085 128.251 46.6705 127.901 46.6929C127.653 46.7087 127.404 46.6929 127.155 46.6935C126.939 46.6942 126.84 46.5786 126.827 46.3732C126.825 46.3483 126.823 46.3234 126.823 46.2988C126.823 44.9442 126.707 45.1704 127.897 45.1534C128.344 45.1468 128.792 45.1521 129.239 45.1524Z" fill="white"/>
<path d="M135.137 16.6225C135.137 17.1691 135.128 17.716 135.141 18.2623C135.148 18.5433 135.057 18.691 134.758 18.6576C134.746 18.6564 134.733 18.6573 134.721 18.6576C134.058 18.6712 134.058 18.6712 134.057 18.0216C134.057 17.0277 134.049 16.0338 134.062 15.0402C134.066 14.7393 133.979 14.5985 133.662 14.6322C133.49 14.6505 133.314 14.636 133.14 14.6353C132.666 14.6334 132.497 14.3852 132.646 13.9256C132.691 13.7867 132.789 13.7665 132.905 13.7665C134.035 13.7655 135.165 13.7649 136.295 13.7671C136.613 13.7678 136.549 14.0138 136.55 14.1993C136.55 14.3849 136.613 14.6278 136.295 14.6316C136.022 14.6347 135.747 14.6476 135.475 14.6322C135.21 14.6171 135.128 14.7302 135.134 14.9831C135.146 15.5291 135.138 16.076 135.137 16.6225Z" fill="white"/>
</svg>
