<svg width="65" height="67" viewBox="0 0 65 67" fill="none" xmlns="http://www.w3.org/2000/svg">
<path d="M41.2698 17.7031H23.6797V49.3054H41.2698V17.7031Z" fill="#FF5A00"/>
<path d="M24.8499 33.4995C24.8499 27.0789 27.8683 21.3803 32.5 17.6984C29.0913 15.0182 24.7913 13.3984 20.1011 13.3984C8.99019 13.3984 0 22.3886 0 33.4995C0 44.6104 8.99019 53.6006 20.1011 53.6006C24.7913 53.6006 29.0913 51.9808 32.5 49.3007C27.8618 45.6708 24.8499 39.9202 24.8499 33.4995Z" fill="#EB001B"/>
<path d="M65 33.4995C65 44.6104 56.0098 53.6006 44.8989 53.6006C40.2087 53.6006 35.9087 51.9808 32.5 49.3007C37.1903 45.6122 40.1501 39.9202 40.1501 33.4995C40.1501 27.0789 37.1317 21.3803 32.5 17.6984C35.9022 15.0182 40.2022 13.3984 44.8924 13.3984C56.0098 13.3984 65 22.4472 65 33.4995Z" fill="#F79E1B"/>
</svg>
