<svg width="68" height="67" viewBox="0 0 68 67" fill="none" xmlns="http://www.w3.org/2000/svg">
<g clip-path="url(#clip0_8268_18581)">
<path fill-rule="evenodd" clip-rule="evenodd" d="M37.8061 8.03304L37.7866 19.133L37.767 30.2329L36.8538 27.6561C36.8534 27.6552 36.8523 27.6519 36.852 27.651L35.6719 52.3624C36.8322 55.6389 37.4538 57.3881 37.4608 57.395C37.4699 57.4042 38.1311 57.4441 38.9301 57.4837C41.351 57.6039 44.3509 57.8613 46.6266 58.144C47.1535 58.2095 47.607 58.243 47.6343 58.2186C47.6616 58.1941 47.6764 46.8923 47.6673 33.1035L47.6507 8.03304H37.8061ZM20 8V33.0959C20 46.8987 20.0135 58.2054 20.03 58.222C20.0466 58.2385 20.9014 58.1578 21.9296 58.0426C22.9578 57.9275 24.3789 57.7843 25.0875 57.7245C26.1742 57.6327 29.4191 57.4241 29.7948 57.4218C29.9041 57.4211 29.9111 56.8572 29.927 46.7922L29.9437 36.1634L30.7288 38.3847C30.8501 38.728 30.8882 38.8352 31.0064 39.1697L32.1862 14.4644C31.9362 13.7577 32.0672 14.1287 31.7808 13.3187C30.8168 10.5933 29.9988 8.28163 29.963 8.1817L29.8977 8H20Z" fill="#B1060F" stroke="white" stroke-width="0.0435106"/>
<path fill-rule="evenodd" clip-rule="evenodd" d="M20 8V22.087L29.9237 48.4109C29.9247 47.8077 29.9259 47.4818 29.927 46.7922L29.9437 36.1634L30.7288 38.3847C35.099 50.7509 37.447 57.3812 37.4608 57.395C37.4699 57.4042 38.1311 57.4441 38.9302 57.4837C41.351 57.6039 44.3509 57.8613 46.6266 58.144C47.1535 58.2095 47.607 58.243 47.6343 58.2186C47.653 58.2018 47.6653 52.6602 47.6686 44.8427L37.7914 16.4457L37.7866 19.133L37.767 30.2329L36.8538 27.6561C35.9614 25.1383 35.3657 23.4545 31.7808 13.3187C30.8168 10.5933 29.9988 8.28163 29.963 8.1817L29.8977 8H20Z" fill="url(#paint0_radial_8268_18581)"/>
<path fill-rule="evenodd" clip-rule="evenodd" d="M20 8L29.9435 36.1762V36.1634L30.7286 38.3847C35.0988 50.7509 37.4468 57.3812 37.4606 57.395C37.4697 57.4042 38.1309 57.4441 38.9299 57.4837C41.3508 57.6039 44.3507 57.8613 46.6264 58.144C47.1506 58.2091 47.6017 58.2426 47.6332 58.2189L37.7668 30.2277V30.2329L36.8536 27.6561C35.9612 25.1383 35.3654 23.4545 31.7806 13.3187C30.8166 10.5933 29.9986 8.28163 29.9628 8.1817L29.8975 8L20 8Z" fill="#E50914"/>
<path fill-rule="evenodd" clip-rule="evenodd" d="M37.8061 8.03304L37.7866 19.133L37.767 30.2329L36.8538 27.6561C36.8534 27.6552 36.8523 27.6519 36.852 27.651L35.6719 52.3624C36.8322 55.6389 37.4538 57.3881 37.4608 57.395C37.4699 57.4042 38.1311 57.4441 38.9301 57.4837C41.351 57.6039 44.3509 57.8613 46.6266 58.144C47.1535 58.2095 47.607 58.243 47.6343 58.2186C47.6616 58.1941 47.6764 46.8923 47.6673 33.1035L47.6507 8.03304H37.8061ZM20 8V33.0959C20 46.8987 20.0135 58.2054 20.03 58.222C20.0466 58.2385 20.9014 58.1578 21.9296 58.0426C22.9578 57.9275 24.3789 57.7843 25.0875 57.7245C26.1742 57.6327 29.4191 57.4241 29.7948 57.4218C29.9041 57.4211 29.9111 56.8572 29.927 46.7922L29.9437 36.1634L30.7288 38.3847C30.8501 38.728 30.8882 38.8352 31.0064 39.1697L32.1862 14.4644C31.9362 13.7577 32.0672 14.1287 31.7808 13.3187C30.8168 10.5933 29.9988 8.28163 29.963 8.1817L29.8977 8H20Z" fill="#B1060F" stroke="white" stroke-width="0.0435106"/>
<path fill-rule="evenodd" clip-rule="evenodd" d="M20 8V22.087L29.9237 48.4109C29.9247 47.8077 29.9259 47.4818 29.927 46.7922L29.9437 36.1634L30.7288 38.3847C35.099 50.7509 37.447 57.3812 37.4608 57.395C37.4699 57.4042 38.1311 57.4441 38.9302 57.4837C41.351 57.6039 44.3509 57.8613 46.6266 58.144C47.1535 58.2095 47.607 58.243 47.6343 58.2186C47.653 58.2018 47.6653 52.6602 47.6686 44.8427L37.7914 16.4457L37.7866 19.133L37.767 30.2329L36.8538 27.6561C35.9614 25.1383 35.3657 23.4545 31.7808 13.3187C30.8168 10.5933 29.9988 8.28163 29.963 8.1817L29.8977 8H20Z" fill="url(#paint1_radial_8268_18581)"/>
<path fill-rule="evenodd" clip-rule="evenodd" d="M20 8L29.9435 36.1762V36.1634L30.7286 38.3847C35.0988 50.7509 37.4468 57.3812 37.4606 57.395C37.4697 57.4042 38.1309 57.4441 38.9299 57.4837C41.3508 57.6039 44.3507 57.8613 46.6264 58.144C47.1506 58.2091 47.6017 58.2426 47.6332 58.2189L37.7668 30.2277V30.2329L36.8536 27.6561C35.9612 25.1383 35.3654 23.4545 31.7806 13.3187C30.8166 10.5933 29.9986 8.28163 29.9628 8.1817L29.8975 8L20 8Z" fill="#E50914"/>
</g>
<defs>
<radialGradient id="paint0_radial_8268_18581" cx="0" cy="0" r="1" gradientTransform="matrix(5.92608 -2.05182 75.1581 217.066 33.3748 32.8212)" gradientUnits="userSpaceOnUse">
<stop/>
<stop offset="1" stop-opacity="0"/>
</radialGradient>
<radialGradient id="paint1_radial_8268_18581" cx="0" cy="0" r="1" gradientTransform="matrix(5.92608 -2.05182 75.1581 217.066 33.3748 32.8212)" gradientUnits="userSpaceOnUse">
<stop/>
<stop offset="1" stop-opacity="0"/>
</radialGradient>
<clipPath id="clip0_8268_18581">
<rect width="67" height="67" fill="white" transform="translate(0.945312)"/>
</clipPath>
</defs>
</svg>
