<svg width="84" height="67" viewBox="0 0 84 67" fill="none" xmlns="http://www.w3.org/2000/svg">
<g clip-path="url(#clip0_7177_26053)">
<path d="M59.9677 17.1777H56.4199V24.1411C56.4199 26.4108 58.8438 28.35 61.8407 28.35C64.8376 28.35 67.4599 26.3888 67.4599 24.1411V17.1777H63.9121V23.458C63.9121 24.4937 63.0307 25.331 61.9509 25.331C60.8491 25.331 59.9677 24.4937 59.9677 23.4359V17.1777ZM3.68782 13.3435V27.7991H0.0078125V10.3686H6.64064C9.52735 10.3686 11.8852 12.7044 11.8852 15.5471C11.8852 17.971 10.1884 19.9983 7.89669 20.5272L13.009 27.7991H8.62387L4.94387 22.0918V17.927H5.80327C7.1695 17.927 8.2713 16.9133 8.2713 15.6572C8.2713 14.4012 7.23561 13.3435 5.86938 13.3435H3.68782ZM37.5571 27.7991V9.53125H34.0754V18.1473C33.1499 17.2438 31.982 16.737 30.6378 16.737C27.7731 16.737 25.4373 19.2711 25.4373 22.4223C25.4373 25.5514 27.7731 28.1076 30.6378 28.1076C32.004 28.1076 33.2821 27.5787 34.0754 26.6091V27.7991H37.5571ZM31.6294 25.1327C30.2191 25.1327 29.0732 23.8767 29.0732 22.3341C29.0732 20.7916 30.2191 19.5356 31.6294 19.5356C33.0397 19.5356 34.1856 20.7916 34.1856 22.3341C34.1636 23.8767 33.0177 25.1327 31.6294 25.1327ZM52.189 18.3236C53.1365 17.4422 53.7315 16.2522 53.7315 14.9521C53.7315 13.7622 53.2687 12.6824 52.4754 11.823C51.6381 10.9195 50.1837 10.3686 48.2005 10.3686H42.2728V27.7991H49.9413C52.8721 27.755 55.252 25.5294 55.252 22.7969C55.2299 20.8137 54.5248 19.4034 52.189 18.3236ZM49.2361 24.7801H45.9087V13.4977H48.2445C49.2582 13.4977 50.1176 14.269 50.1176 15.3047C50.1176 16.3404 49.2582 17.1777 48.2445 17.1777H47.0105V20.3289H49.2802C50.5142 20.3289 51.4397 21.3425 51.4397 22.5765C51.3957 23.8106 50.5803 24.714 49.2361 24.7801Z" fill="#E21B4D"/>
<path d="M16.0891 21.1222C16.0891 19.9543 17.0366 19.0067 18.2045 19.0067C19.3724 19.0067 20.32 19.9543 20.32 21.1222H16.0891ZM23.7576 23.1054C23.7796 22.863 23.8016 22.6206 23.8016 22.3782C23.8457 18.6101 21.3777 16.5607 18.2045 16.5607C15.0313 16.5607 12.4531 19.161 12.4531 22.3782C12.4531 25.5955 15.0313 28.1957 18.2045 28.1957C20.6285 28.1957 22.5236 27.0939 23.4931 25.3751L20.6725 24.075C20.32 24.8462 19.4826 25.3971 18.491 25.3971C17.1909 25.3971 16.1111 24.4055 16.1111 23.1054H23.7576ZM69.0855 9.53125H72.5672V27.7991H69.0855V9.53125ZM75.0132 9.53125H78.4949V27.7991H75.0132V9.53125Z" fill="#E21B4D"/>
<path d="M31.25 39.8795C31.25 35.1638 35.0622 31.3516 39.7779 31.3516C44.4936 31.3516 48.3058 35.1638 48.3058 39.8795C48.3058 44.5952 44.4936 48.4074 39.7779 48.4074C35.0622 48.4074 31.25 44.5731 31.25 39.8795Z" fill="#FFD300"/>
<path fill-rule="evenodd" clip-rule="evenodd" d="M32.929 34.7987C33.0612 34.8648 33.1934 34.931 33.3477 35.0191C33.9867 35.4598 34.4054 35.8344 35.375 36.6498C35.6614 36.9362 35.992 37.399 36.2344 37.6855C36.7632 38.3465 37.1379 38.8093 37.204 39.3602C37.3582 40.462 37.5125 41.079 37.9312 42.2028C37.9752 42.313 38.1515 42.4673 38.2617 42.5995C38.5261 42.93 38.6363 43.4589 39.1211 43.7453C39.3855 43.8996 39.4296 43.9216 39.5177 43.9877C39.65 44.0979 39.4296 44.4946 38.7465 44.4064C39.0991 44.5827 39.055 44.9794 38.5482 45.0014C37.5565 45.0455 36.9395 44.4725 36.8073 44.3183C36.7412 44.2522 36.5429 44.5166 36.1903 44.6488C35.8377 44.8251 35.3529 44.6488 34.9783 44.7149C34.6258 44.781 34.163 45.0014 33.7884 45.0234C33.1273 45.0455 33.0392 44.5827 33.0392 44.1861V44.0098C32.9731 44.2522 32.7307 44.6709 32.7307 44.6709C32.6425 44.8692 32.5103 45.1116 32.2679 45.1997L31.5628 45.2879C31.0119 45.5303 30.461 45.7065 29.888 45.9049C29.5575 45.971 29.1829 45.9049 28.9405 45.7065C28.7422 45.5523 28.632 45.354 28.5218 45.1556C28.4116 45.1116 28.2574 45.1556 28.1251 45.1116C28.015 45.0895 27.9489 45.0014 27.8828 44.9353L27.398 44.12C27.3539 44.0098 27.3539 43.8555 27.398 43.7453C27.4861 43.5691 27.6844 43.4809 27.8828 43.4809C28.2353 43.4589 28.632 43.3487 28.9846 43.4809C29.1388 43.3046 29.3812 43.3267 29.6016 43.2826C29.5134 43.1504 29.3812 43.0843 29.271 42.9741C28.632 43.1283 27.9268 43.0182 27.3098 42.908C26.7369 42.7758 26.2521 43.1063 25.6792 43.0182L25.5029 43.3928C25.2384 43.6792 25.2164 44.164 24.8198 44.3623C24.5333 44.4285 24.3129 44.6268 24.0705 44.759C23.6298 45.0014 23.0348 44.8912 22.5501 44.8031C22.3517 44.781 22.2195 44.8031 22.0432 44.8692C21.889 44.9794 21.7127 45.1556 21.5364 45.2879C21.2499 45.398 21.0075 45.6404 20.699 45.6625C20.5227 45.6625 20.3465 45.5523 20.1702 45.5964C19.9498 45.8388 19.8396 46.2354 19.4871 46.3456C19.1345 46.4558 18.6938 46.3676 18.3412 46.2795C18.231 46.3235 18.1649 46.4117 18.0327 46.3897C17.7903 46.3235 17.5479 46.2574 17.3275 46.1252C17.2394 46.0371 17.2173 45.9269 17.1953 45.8388C17.1953 45.6845 17.3275 45.5523 17.3936 45.4201C17.4157 45.2658 17.4157 45.0455 17.4818 44.8912C17.592 44.6488 17.8344 44.4946 18.0768 44.3844C18.0988 44.2081 18.209 44.0538 18.3632 43.9657C18.6497 43.8114 18.9582 43.4589 19.3328 43.6572L19.7294 43.9877C20.082 43.8335 19.9939 43.4809 20.1702 43.1944C20.2583 42.9961 20.3685 42.7758 20.5889 42.7758C20.7431 42.7537 20.9194 42.7978 21.0736 42.7758C21.294 42.7096 21.5364 42.6215 21.6906 42.4452L21.6686 42.313C21.4483 41.8943 21.3821 41.3875 21.3601 40.8807C20.9635 40.9247 20.5448 40.9908 20.1261 40.9027C19.5091 40.8146 18.9141 40.3298 18.6717 39.7128C18.4073 39.1178 18.5175 38.2804 18.9362 37.7736C19.2667 37.3769 19.6413 37.0244 20.038 36.7159C19.9057 36.6718 19.7515 36.6938 19.6193 36.6498C19.0463 36.5616 18.4734 36.0548 18.3412 35.4819C18.253 35.1072 18.3412 34.7547 18.5175 34.4462C18.5836 34.3801 18.6497 34.3139 18.7599 34.358C19.0463 34.4682 19.1345 34.6225 19.3989 34.7547L19.5532 34.8428C20.2803 35.0852 21.2499 35.0852 21.5364 35.9887C21.7127 36.6938 21.272 37.2227 20.7651 37.6193C20.3685 37.9058 19.9718 38.2584 19.7735 38.6771C19.6854 38.9856 19.7294 39.2941 19.9939 39.5144C20.2583 39.7789 20.7211 39.7789 21.0516 39.6467C21.6686 39.3822 22.2415 38.9856 22.7924 38.5669C23.3213 38.1702 23.9604 38.016 24.6435 37.994C24.952 37.9278 25.2164 37.7956 25.4588 37.5973C25.8775 37.2007 26.3182 36.8701 26.8471 36.7379C27.0895 36.6938 27.3319 36.6718 27.5742 36.6498C27.7726 36.5616 27.9048 36.3192 28.059 36.209C28.7862 35.57 29.7558 35.592 30.5271 35.0852C30.9678 34.7547 31.4526 34.5343 32.0255 34.5563C32.2899 34.5784 32.5323 34.6225 32.7527 34.7106L32.929 34.7987ZM33.6562 42.291C33.1714 42.313 32.8629 42.4232 32.5323 42.4673C32.5544 42.7758 32.7307 43.0402 32.9731 43.3707C33.1053 42.8639 33.524 42.6656 33.6562 42.291ZM46.0624 42.4011C46.2828 42.7317 46.415 43.0622 46.6133 43.4148C46.8116 43.0402 46.9879 42.6876 47.1642 42.4673C47.1422 42.4452 46.5692 42.5113 46.0624 42.4011ZM46.5252 44.0318C46.5031 44.0979 46.4591 44.12 46.3709 44.12C46.437 44.4285 46.2167 45.0014 45.6658 45.0234C45.2912 45.0455 44.6742 44.6708 44.3216 44.6488C43.947 44.6268 43.2639 44.9132 42.8672 44.3183C42.3383 44.9573 41.7213 45.1336 41.1925 45.1116C40.884 45.1116 40.5534 44.9353 41.0162 44.5386C40.0025 44.8692 40.0025 44.1861 40.1788 44.0538C40.289 43.9657 40.4212 43.8996 40.7958 43.525C42.2061 42.0486 41.6773 39.4924 43.2198 37.7956C43.8148 37.1346 44.2995 36.7599 45.5115 35.9005C45.9302 35.6141 46.3489 35.1954 46.7455 34.9089L46.7676 34.953V34.931C47.01 34.7547 47.2303 34.5784 47.4948 34.5123C48.0457 34.4462 48.5525 34.6225 48.9712 34.9089C49.1915 35.0632 49.3678 35.2395 49.5441 35.4598C49.6763 35.592 49.8746 35.592 50.0509 35.6581C50.5578 35.7463 50.9985 35.9446 51.4172 36.209C51.7036 36.3853 51.946 36.6938 52.2986 36.7379C52.7173 36.804 53.0919 36.9362 53.4665 37.1566C53.9072 37.4431 54.3039 37.7956 54.8327 37.8838C55.8905 37.994 56.7719 38.5889 57.6093 39.1839C58.0941 39.4704 58.667 39.8009 59.262 39.6026C59.4382 39.5365 59.5705 39.3822 59.6145 39.228C59.6586 38.8313 59.4162 38.5228 59.1738 38.2364C58.667 37.6414 57.7856 37.1346 57.8957 36.2751C58.05 35.6361 58.7551 35.2615 59.306 35.0852C59.6145 34.975 59.9891 35.0191 60.2536 34.7547C60.3858 34.6665 60.4519 34.358 60.6723 34.4682C60.8485 34.5784 60.8706 34.7987 60.8926 34.9971C60.9808 35.6141 60.8486 36.2311 60.2756 36.5837C60.0112 36.7599 59.7247 36.826 59.4162 36.8922C59.879 37.2668 60.3417 37.7295 60.6062 38.2584C60.7604 38.5669 60.8486 38.8313 60.8706 39.1839C60.8486 39.845 60.4519 40.4179 59.879 40.7484C59.5484 40.9247 59.1738 40.9908 58.7772 40.9908C58.6229 40.9908 58.4907 40.9468 58.3585 40.9468C58.4246 41.2553 58.4246 41.674 58.3585 42.0265C58.3364 42.2028 58.2263 42.4011 58.2263 42.6215C58.3144 42.7317 58.4466 42.7317 58.5568 42.7317C58.8433 42.7317 59.1959 42.7097 59.3501 43.0182C59.4823 43.3046 59.5484 43.6352 59.6586 43.9216C59.7027 43.9657 59.7247 44.0759 59.7908 44.0538C59.9891 43.8776 60.1875 43.6352 60.4739 43.7013C60.7384 43.8776 61.0028 44.0759 61.2672 44.2742C61.3333 44.3403 61.3554 44.4285 61.3774 44.5386C61.5978 44.6268 61.8842 44.781 61.9504 45.0455C61.9944 45.2217 61.9724 45.398 62.0165 45.5523C62.0826 45.7286 62.2589 45.9489 62.1266 46.1693L62.0385 46.2354L61.2011 46.4998C61.135 46.4998 61.0689 46.4558 61.0028 46.3897C60.5621 46.3676 60.0332 46.4998 59.6806 46.1913C59.5264 46.0591 59.4162 45.9049 59.306 45.7286C59.0416 45.8608 58.667 45.9489 58.4026 45.7726C57.8517 45.354 57.3008 44.9353 56.5515 44.9573C56.221 45.0234 55.8244 45.1116 55.4938 44.9794C55.1853 44.759 54.8327 44.6488 54.5903 44.3183C54.2378 43.9437 54.2378 43.5029 54.1055 43.0402C53.6208 43.1504 53.0919 43.0843 52.6071 43.0622C52.2105 43.0402 51.8358 43.1063 51.4612 43.1944C50.9985 43.2826 50.4916 43.3267 50.0069 43.3046L49.7645 43.4809C49.8746 43.5029 49.9848 43.5029 50.073 43.5911L50.1611 43.6792C50.5578 43.7233 51.0205 43.6572 51.3951 43.7453C51.4833 43.7674 51.5714 43.8555 51.6155 43.9437C51.6596 44.0538 51.6596 44.1861 51.5934 44.2742C51.3951 44.5386 51.2849 44.8471 51.0205 45.0675C50.9544 45.1556 50.7561 45.0455 50.734 45.1997C50.6459 45.5964 50.2713 45.9269 49.8967 46.015C49.7424 46.0371 49.5661 46.015 49.4339 45.971C48.9712 45.8167 48.5084 45.6845 48.0457 45.5523C47.8914 45.5082 47.7592 45.354 47.627 45.2658C47.4287 45.2658 47.1422 45.3319 47.01 45.1556C46.9439 45.1116 46.8778 44.9573 46.8557 44.8912C46.7015 44.6929 46.5913 44.3403 46.5252 44.0318Z" fill="#FFD300"/>
<path fill-rule="evenodd" clip-rule="evenodd" d="M32.7052 37.5906C32.8374 37.9212 32.8374 38.3619 32.7492 38.7145C32.7272 38.7365 32.7052 38.7365 32.6831 38.7145C32.617 38.406 32.5509 38.0975 32.4407 37.789C32.3746 37.6127 32.1543 37.4584 32.2424 37.2601C32.2865 37.216 32.3746 37.216 32.4407 37.2381C32.5509 37.3482 32.617 37.4584 32.7052 37.5906ZM36.2309 40.6757C36.4733 40.9621 36.6496 41.2706 36.5615 41.6453C36.5174 41.7114 36.5394 41.8436 36.4292 41.8656C36.3852 41.8877 36.3411 41.8436 36.3411 41.7995C36.3191 41.6012 36.3191 41.3808 36.2089 41.2266C36.0767 41.0944 35.9224 40.8299 35.7021 40.8299C35.5478 40.874 35.4376 41.0503 35.3495 41.1605C35.3495 41.1825 35.3274 41.1825 35.3054 41.1605C35.2173 40.9401 35.3936 40.7638 35.4597 40.5875C35.5919 40.4553 35.5698 40.0807 35.8563 40.1909C36.0546 40.3231 36.0987 40.5435 36.2309 40.6757ZM35.7682 43.298C35.7902 43.4302 35.7902 43.6285 35.658 43.7166C35.5258 43.7607 35.3495 43.7827 35.1952 43.7607C35.1512 43.7387 35.1071 43.7166 35.1291 43.6726C35.1952 43.4742 35.3936 43.2539 35.6139 43.2098C35.658 43.2098 35.7461 43.2098 35.7682 43.298ZM19.6819 35.2548C20.2108 35.387 20.7837 35.387 21.1804 35.8057C21.4007 36.0702 21.4228 36.5329 21.2465 36.7973C20.938 37.3262 20.321 37.5906 19.9463 38.0534C19.5717 38.3619 19.4395 38.8467 19.5497 39.3315C19.6819 39.7502 20.1006 40.0366 20.5193 40.0587C21.1804 40.0807 21.6652 39.7502 22.194 39.4417C22.7229 39.067 23.2077 38.5823 23.8026 38.428C24.1993 38.2958 24.64 38.3619 25.0367 38.2076C25.4553 38.1195 25.7859 37.7669 26.1164 37.4584C26.491 37.1499 26.9317 36.9736 27.4165 36.9957C27.8573 37.0618 28.0997 36.6651 28.4082 36.4007C28.915 35.9379 29.5761 35.8939 30.171 35.6294C30.5897 35.4972 30.9203 35.1887 31.3169 34.9904C31.6915 34.8361 32.1983 34.7921 32.573 34.9463C32.8153 35.0565 33.0798 35.1667 33.3001 35.343L35.0851 36.8414C35.1071 36.9075 35.1732 36.9516 35.2173 36.9736C35.7241 37.5906 36.253 38.1856 36.6716 38.8687C36.8039 39.1111 36.87 39.3535 36.9361 39.6179C37.0242 40.6316 37.2886 41.513 37.6192 42.3945C37.7073 42.5267 37.8836 42.6369 37.9718 42.7691C38.2582 43.1657 38.4345 43.6726 38.8973 43.937L39.1617 44.0692C39.1837 44.0912 39.1837 44.1353 39.1617 44.1574L39.1176 44.2014C38.5667 44.2896 38.1481 43.959 37.8616 43.5624C37.6853 43.2098 37.4429 42.8352 37.0463 42.6809C37.0242 42.6809 37.0022 42.703 37.0022 42.703C37.0463 42.8352 37.1785 42.9233 37.2225 43.0335C37.3768 43.2759 37.509 43.5404 37.5751 43.8048C37.6633 44.0912 37.9718 44.2896 38.2142 44.4438L38.5667 44.6201C38.6108 44.6421 38.6328 44.7083 38.5888 44.7523L38.5447 44.7744C37.9497 44.7964 37.4209 44.5981 37.0022 44.1574C36.914 44.0472 36.7818 43.959 36.6276 43.959C36.3631 44.2014 36.0987 44.4218 35.7461 44.4438C35.3715 44.3777 34.9749 44.3777 34.6443 44.5099C34.3358 44.6201 34.0273 44.7523 33.6968 44.7523C33.5425 44.7523 33.3662 44.6862 33.3001 44.532C33.3001 44.3336 33.1679 44.1133 33.2781 43.915L33.4985 43.5844C33.4985 43.5404 33.4764 43.4963 33.4324 43.4963C33.3442 43.4742 33.19 43.6285 33.1459 43.4742C33.1679 43.1437 33.4985 42.9233 33.7188 42.703C33.7629 42.4386 33.8731 42.1962 34.0714 41.9758C34.0714 41.9538 34.0494 41.9097 34.0053 41.9097C33.7188 41.9538 33.4324 42.0199 33.1239 42.0199C32.8815 42.1521 32.573 42.2402 32.2865 42.1521C32.2204 42.108 32.2424 42.0419 32.2644 41.9978C32.573 41.5792 32.6831 41.0503 32.595 40.5435C32.573 40.5214 32.573 40.4774 32.5289 40.4774C32.4848 40.4774 32.4848 40.5214 32.4628 40.5435C32.3967 41.0283 32.2424 41.4029 31.978 41.8215C31.7797 42.0199 31.4712 42.0199 31.2067 42.086C31.1406 42.108 31.0745 42.1741 31.0745 42.2402C31.0745 42.4165 31.1847 42.5267 31.2508 42.6809L31.8237 43.7387C31.8458 44.0251 31.7136 44.3116 31.6474 44.576C31.6695 44.6201 31.7136 44.5981 31.7576 44.576C31.9559 44.3998 32.0882 44.1574 32.1763 43.8929C32.1983 43.7827 32.1543 43.6505 32.1102 43.5624L31.5152 42.3724C31.5593 42.3063 31.6474 42.3063 31.7135 42.2843C31.8458 42.2843 31.978 42.3504 32.1102 42.3945C32.2424 42.7471 32.3967 43.1217 32.6391 43.4302C32.6831 43.6285 32.7492 43.8929 32.617 44.0472C32.4848 44.3116 32.3526 44.532 32.1763 44.7744C32.0221 44.9286 31.8017 44.9066 31.5813 44.9286H31.5152C30.9864 45.2151 30.4355 45.3914 29.8625 45.5677C29.6201 45.6778 29.3337 45.5897 29.1353 45.4354C28.937 45.2812 28.8489 45.0608 28.7167 44.8625C28.5624 44.6642 28.32 44.8405 28.1437 44.7303C27.9895 44.4879 27.8352 44.2455 27.703 43.9811C27.703 43.915 27.703 43.8489 27.7691 43.8048C27.9674 43.7387 28.1878 43.7387 28.4082 43.7166C28.6065 43.6946 28.8268 43.7387 28.9591 43.8709C29.2235 44.1794 29.3337 44.5981 29.7303 44.7964C30.0388 44.8184 30.3032 44.7303 30.5677 44.5981C30.7219 44.5099 30.8982 44.3777 30.8982 44.1794C30.8762 43.7827 30.6118 43.4742 30.2812 43.2539C29.9507 43.0776 29.5981 42.8352 29.3557 42.5267C29.2235 42.3504 29.2015 42.1521 29.1353 41.9758C29.1133 41.9317 29.0252 41.9317 29.0031 41.9538C28.8709 42.0639 28.9811 42.2623 28.9811 42.3945C29.0031 42.4826 29.0472 42.5928 29.0031 42.6589C28.8048 42.8132 28.5404 42.725 28.298 42.7471C27.8132 42.725 27.3504 42.5267 26.8436 42.5708C26.3588 42.5928 25.6977 42.9233 25.3452 42.4386C25.1689 41.9758 25.2129 41.4249 25.3011 40.9621C25.3011 40.9181 25.257 40.874 25.2129 40.874C25.1689 40.852 25.1248 40.874 25.1028 40.9181C24.9705 41.3808 24.9485 41.8877 24.8383 42.3724C24.662 42.7911 24.3535 43.2318 23.9349 43.4522C23.5602 43.6505 23.1195 43.7166 22.6568 43.7607C21.8194 43.7827 21.0481 43.937 20.5193 44.6642C20.4752 44.7303 20.4091 44.7964 20.4311 44.8845C20.4532 44.9066 20.5193 44.9286 20.5413 44.9066C21.1143 44.2675 21.8414 44.0031 22.6788 44.0472C23.4721 44.0472 24.2654 43.915 24.7722 43.2318C24.9044 43.0776 24.9926 42.9233 25.1028 42.7471C25.1909 42.7471 25.257 42.8572 25.3231 42.9013C25.3452 43.1437 25.1468 43.298 25.0587 43.4963C24.9485 43.7166 24.8383 43.9811 24.618 44.1133C24.3535 44.1794 24.1332 44.3557 23.8908 44.4879C23.6484 44.5981 23.3399 44.6421 23.0534 44.576C22.7008 44.5099 22.2161 44.4218 21.8635 44.576C21.6872 44.6862 21.5329 44.8845 21.3566 44.9947C21.1143 45.1049 20.8939 45.3032 20.6074 45.2812C20.4091 45.2371 20.1667 45.1049 19.9904 45.2812C19.7701 45.4795 19.726 45.8321 19.4395 45.9643C19.109 46.1406 18.7564 45.9643 18.4259 45.9423C18.4699 45.6117 18.514 45.3032 18.7344 45.0608C18.8666 45.0388 18.9768 45.0168 19.0869 44.9286C19.2192 44.8184 19.3073 44.6642 19.3954 44.5099C19.6819 44.3336 20.0125 44.2014 20.1887 43.8929C20.321 43.6065 20.321 43.342 20.5413 43.0776L20.6515 43.0335L21.2465 42.9895C21.4889 42.8793 21.7092 42.7691 21.9296 42.5928C21.9957 42.5267 22.0177 42.4165 21.9957 42.3063C21.8855 42.0199 21.7974 41.8215 21.7313 41.513C21.6652 41.2045 21.7092 40.896 21.6652 40.5435C21.6431 40.5214 21.6211 40.4553 21.577 40.4553C21.1804 40.5435 20.8057 40.6536 20.365 40.5875C19.7701 40.5214 19.1531 40.1248 18.9327 39.5298C18.7344 39.023 18.7784 38.2958 19.1531 37.8771C19.5056 37.4364 19.9463 37.1059 20.3871 36.7312C20.4532 36.6872 20.4532 36.599 20.4752 36.5329C20.4752 36.4448 20.3871 36.3787 20.321 36.3346C20.0565 36.2685 19.748 36.3566 19.4836 36.2464C19.0208 36.0922 18.6683 35.6515 18.6022 35.1667C18.5801 34.9463 18.6242 34.77 18.7344 34.5938C19.0869 34.9023 19.3514 35.1667 19.6819 35.2548ZM18.3598 45.1049V45.171C18.2496 45.4354 18.1835 45.7439 18.0953 46.0524C17.897 46.0304 17.7207 45.9643 17.5665 45.8982C17.5224 45.8541 17.5665 45.8101 17.5665 45.766C17.7648 45.5897 17.6987 45.3693 17.7428 45.1269C17.7648 44.9947 17.897 44.8845 18.0292 44.8184C18.1835 44.8405 18.2716 44.9947 18.3598 45.1049ZM19.3293 44.1794C19.2192 44.3998 19.0649 44.6642 18.8225 44.7964C18.7344 44.8184 18.6242 44.8184 18.536 44.7744C18.492 44.7303 18.4038 44.6862 18.4038 44.5981C18.4259 44.5099 18.3818 44.3998 18.4699 44.3557C18.6462 44.2455 18.8225 44.1353 18.9988 43.9811C19.0429 43.959 19.131 43.937 19.1531 43.9811C19.2412 44.0472 19.3073 44.0912 19.3293 44.1794ZM30.3694 44.0913C30.3914 44.1794 30.5236 44.2896 30.4355 44.3777C30.2592 44.5099 30.0609 44.5981 29.8185 44.576C29.6422 44.4438 29.6642 44.2014 29.51 44.0251C29.4659 43.8929 29.2676 43.8929 29.3116 43.7607L29.3777 43.7166C29.6201 43.7166 29.8625 43.7166 30.1049 43.6726C30.3473 43.6505 30.2812 43.937 30.3694 44.0913ZM44.2961 40.4994C44.4283 40.6757 44.5385 40.852 44.6266 41.0723C44.6487 41.1164 44.6266 41.1605 44.6046 41.2045C44.5826 41.2486 44.5385 41.2927 44.4724 41.2486C44.3181 41.2045 44.3402 40.9621 44.1418 40.9842C44.0096 40.9842 43.9215 41.0944 43.8113 41.1605C43.613 41.3368 43.3485 41.513 43.3045 41.7775C43.2604 41.8656 43.2824 42.0199 43.1943 42.0639C43.1502 42.086 43.0841 42.0419 43.0841 41.9978C43.0621 41.6453 43.1723 41.3147 43.4146 41.0723C43.657 40.874 43.8333 40.5875 44.0317 40.3451C44.1639 40.3231 44.252 40.4112 44.2961 40.4994ZM44.3842 43.4302C44.4283 43.5183 44.5164 43.6285 44.4503 43.7387C44.3622 43.8048 44.2079 43.7607 44.0978 43.7607C43.9655 43.6946 43.9215 43.5183 43.9215 43.3641C43.9215 43.32 43.9215 43.298 43.9655 43.2539C44.1198 43.2539 44.274 43.298 44.3842 43.4302ZM47.6896 36.6872C47.7557 36.7753 47.6896 36.8635 47.6455 36.9296C47.337 37.216 46.9624 37.5245 46.7421 37.8771C46.6539 37.9873 46.5878 38.1195 46.5437 38.2517C46.5437 38.2738 46.5217 38.2738 46.4997 38.2738C46.4336 38.0975 46.5217 37.8991 46.5658 37.7229C46.72 37.3042 47.0726 36.9075 47.4472 36.6211C47.4913 36.599 47.6455 36.577 47.6896 36.6872ZM48.9457 35.2769C49.1881 35.4311 49.2762 35.7617 49.5627 35.8278C50.0475 35.9379 50.5323 36.0481 50.973 36.2685C51.2815 36.4227 51.568 36.6431 51.8544 36.8855C52.1189 37.0177 52.4494 37.0177 52.7359 37.1058C53.1545 37.216 53.4851 37.5245 53.8597 37.7669C54.3445 38.1415 55.0276 38.0975 55.5785 38.3399C56.4599 38.6263 57.1651 39.3094 57.9804 39.7061C58.3991 39.9265 59.0381 40.0146 59.4568 39.7722C59.7433 39.5739 59.9196 39.3094 59.8535 38.9348C59.6992 38.0314 58.7076 37.5686 58.2448 36.8194C58.1567 36.6431 58.0906 36.4007 58.1347 36.2024C58.311 35.7617 58.7737 35.5193 59.1704 35.365C59.4789 35.2108 59.8755 35.2548 60.162 35.0785C60.2722 35.0124 60.3603 34.9243 60.4264 34.8582C60.4925 34.8582 60.4925 34.9243 60.5145 34.9684C60.6027 35.4972 60.5145 36.0481 60.0518 36.3566C59.8755 36.4888 59.6551 36.5329 59.4568 36.577C59.2805 36.6431 58.928 36.5109 58.95 36.8194C58.9941 36.9736 59.1263 37.0618 59.2365 37.172C59.8535 37.6788 60.4264 38.3399 60.4925 39.1332C60.5145 39.7502 60.0959 40.279 59.567 40.5435C59.1704 40.6977 58.6856 40.7638 58.2669 40.6536C58.1567 40.6316 57.9804 40.5214 57.8923 40.6757C57.8702 40.852 57.9804 40.9842 57.9804 41.1384C58.0245 41.4249 58.0245 41.7995 57.9363 42.086C57.8923 42.3063 57.6719 42.5708 57.8702 42.7911C58.0686 43.0996 58.4652 43.0115 58.7957 43.0556C58.972 43.0776 59.0381 43.2759 59.0822 43.4081C59.1483 43.5844 59.1483 43.7827 59.2144 43.915C59.2144 44.2455 59.589 44.3777 59.7653 44.5981C59.9857 44.8405 60.184 45.2592 60.5586 45.2371C60.6908 45.5016 60.7569 45.7439 60.801 46.0524L60.7569 46.0965C60.4484 46.0965 60.0298 46.1847 59.8094 45.9643C59.545 45.788 59.4568 45.3032 59.0602 45.4354C58.8839 45.5677 58.6415 45.6117 58.4432 45.5236C58.2448 45.4575 58.1126 45.2812 57.9363 45.171C57.4075 44.7744 56.7023 44.576 56.0192 44.7303C55.6226 44.8405 55.3141 44.554 55.0056 44.3777C54.5869 44.2014 54.4767 43.7607 54.3886 43.3861L54.3224 42.9233C54.3224 42.8793 54.3665 42.8352 54.4106 42.8132H54.4767C54.7191 43.3641 55.1818 43.9811 55.7768 44.1794C56.3277 44.3998 56.8345 44.1133 57.4295 44.2235C57.9804 44.2896 58.4211 44.6421 58.8398 44.9727C58.8839 44.9727 58.9059 44.9507 58.928 44.9066V44.8625C58.4211 44.2235 57.716 43.8929 56.9007 43.959C56.2175 44.0912 55.5565 43.8709 55.1598 43.298C54.9395 42.9674 54.7852 42.6148 54.7191 42.2402C54.653 41.7995 54.5648 41.3147 54.4106 40.9181C54.3665 40.896 54.3224 40.852 54.2784 40.874L54.2343 40.9401C54.3004 41.3588 54.4326 41.8656 54.2784 42.3063C54.1682 42.6589 53.8156 42.7911 53.4851 42.8132C53.1545 42.8352 52.846 42.7691 52.4935 42.7691C51.7002 42.7471 50.995 43.0556 50.1797 42.9895C50.2458 42.7911 50.378 42.5928 50.3119 42.3724C50.2899 42.3284 50.2238 42.3284 50.1797 42.3284C50.0254 42.4165 50.0475 42.6148 49.9593 42.7471C49.783 43.0335 49.4525 43.298 49.122 43.3641C48.8796 43.5404 48.6592 43.7827 48.4609 44.0031C48.3948 44.0692 48.3948 44.2014 48.4168 44.2896C48.5711 44.6862 49.0338 44.7303 49.3864 44.8405C49.5627 44.8625 49.7169 44.7964 49.8051 44.6421C49.9593 44.3998 49.9814 44.0031 50.3339 43.959H51.1052C51.1713 43.9811 51.2154 44.0251 51.2594 44.0913L51.2374 44.2014C51.0611 44.3998 50.995 44.6862 50.7747 44.8184C50.6424 44.8625 50.4882 44.8184 50.4 44.9286C50.356 45.193 50.2899 45.4795 50.0254 45.6117C49.8271 45.788 49.5406 45.6999 49.3203 45.6338C48.9016 45.4795 48.4829 45.3914 48.0642 45.2592C47.8879 45.2151 47.8218 44.9947 47.6235 44.9507C47.4472 44.9066 47.2489 45.0388 47.0946 44.8845C47.0065 44.6862 46.9624 44.554 46.9184 44.3336C46.8523 44.2014 46.8082 44.0472 46.7861 43.8929C46.7641 43.7607 46.7861 43.6726 46.8302 43.5624L47.4032 42.5267C47.4472 42.4606 47.4913 42.3945 47.5574 42.3724C47.6896 42.3945 47.8439 42.4606 47.9761 42.5267L47.9541 42.5928L47.3591 43.4963C47.2269 43.7827 47.3591 44.1133 47.4913 44.3557C47.5133 44.3777 47.5354 44.4218 47.5574 44.3998C47.5354 44.2235 47.5133 44.0472 47.5574 43.8489C47.6015 43.6726 47.7117 43.5183 47.7998 43.3641L48.2626 42.6809C48.3066 42.5708 48.3066 42.3945 48.2185 42.2843C48.0202 42.086 47.7337 42.0199 47.5574 41.7554C47.1828 41.2486 47.1387 40.6536 47.0946 40.0146C47.0946 39.9705 47.0506 39.9044 46.9845 39.8824C46.9404 39.8603 46.8963 39.9265 46.8743 39.9485C46.7641 40.3672 46.8302 40.874 46.9404 41.2486C47.0065 41.5351 47.1387 41.8215 47.2709 42.086C47.293 42.13 47.2489 42.1962 47.2048 42.2182C46.8963 42.2402 46.5878 42.2182 46.3014 42.1741C45.9047 42.108 45.6182 41.7995 45.2877 41.5571C45.2436 41.5351 45.2216 41.5792 45.1996 41.6012C45.2877 42.0419 45.7725 42.3063 45.9267 42.703C46.0149 43.0335 46.3454 43.2759 46.4115 43.6285C46.4115 43.6726 46.3675 43.7387 46.3234 43.7607C46.2132 43.7827 46.103 43.7166 45.9929 43.7827C45.9708 43.9811 46.103 44.1794 46.0149 44.3557C45.9047 44.532 45.7505 44.7303 45.5521 44.7303C45.1555 44.5981 44.7588 44.4218 44.3622 44.3116C44.0757 44.2896 43.7893 44.3336 43.5248 44.3557C43.2604 44.3116 43.0841 44.0692 42.8858 43.937C42.8197 43.915 42.7536 43.915 42.7095 43.959C42.2688 44.3998 41.784 44.8845 41.1229 44.8625C41.0788 44.8625 41.0568 44.8184 41.0568 44.7744V44.7303C41.3433 44.4659 41.6958 44.2014 41.8281 43.8268C41.9162 43.5183 42.1806 43.298 42.2908 43.0115C42.3128 42.9674 42.2688 42.9454 42.2247 42.9233L42.1586 42.9674C41.8281 43.298 41.5857 43.6726 41.3433 44.0251C41.1009 44.2675 40.7483 44.4218 40.3737 44.3336C40.3296 44.3116 40.3296 44.2455 40.3516 44.2014C41.7179 43.3641 41.8721 41.8656 42.2467 40.4994C42.5112 39.5959 42.7095 38.6704 43.4146 37.9432C44.4724 36.7753 45.7945 36.0922 46.9624 35.0785C47.1387 34.9243 47.315 34.77 47.5354 34.77C48.1083 34.726 48.549 34.9463 48.9457 35.2769ZM61.5282 45.0168C61.6384 45.171 61.5943 45.4134 61.6384 45.5897C61.6604 45.7219 61.8367 45.8321 61.7486 45.9643L61.2638 46.1186C61.1756 46.1186 61.2197 46.0084 61.1756 45.9643C61.1316 45.6778 61.0655 45.4795 60.9773 45.2151C60.9553 45.0608 61.1095 44.9507 61.2197 44.8625C61.3299 44.8184 61.418 44.9507 61.5282 45.0168ZM60.4044 44.0251C60.5807 44.1794 60.8231 44.2896 60.9553 44.4879C60.9773 44.576 60.9112 44.6642 60.8671 44.7303C60.801 44.7964 60.7129 44.8405 60.6027 44.8405C60.4925 44.8405 60.4044 44.7744 60.3383 44.6862C60.2281 44.5099 60.0738 44.3557 60.0298 44.1794C60.0959 44.0692 60.2501 43.8929 60.4044 44.0251ZM49.783 43.8489C49.761 44.0692 49.6949 44.2675 49.6068 44.4659C49.5406 44.5981 49.3423 44.554 49.2101 44.532C49.0779 44.4879 48.8575 44.4659 48.8355 44.2675C48.8135 44.0913 48.9016 43.915 48.9897 43.7827C49.1881 43.7607 49.4305 43.8048 49.6288 43.7607C49.7169 43.7607 49.783 43.7827 49.783 43.8489Z" fill="#E21B4D"/>
<path d="M4.41406 57.5785H7.47706V56.9394H5.11921V54.7799H7.38892V54.1409H5.11921V52.5543H7.47706V51.9152H4.41406V57.5785ZM10.474 57.5785H11.1791V53.3476L15.4541 57.8209V51.9152H14.7489V56.1021L10.474 51.6288V57.5785ZM18.495 57.5785H21.536V56.9394H19.2002V54.7799H21.4699V54.1409H19.2002V52.5543H21.536V51.9152H18.495V57.5785ZM26.1636 55.1105C26.9789 55.0223 27.5298 54.3392 27.5298 53.5239C27.5298 52.973 27.2654 52.4441 26.7806 52.1576C26.3398 51.8932 25.7889 51.8932 25.2821 51.8932H24.4227V57.5785H25.1279V55.1766H25.4143L27.0891 57.5785H27.9485L26.1636 55.1105ZM25.1279 52.5322H25.3262C26.0313 52.5322 26.8687 52.6645 26.8687 53.5459C26.8687 54.4494 26.0754 54.5816 25.3703 54.5816H25.1499V52.5322H25.1279ZM33.0388 54.7138V55.3528H34.5152C34.4932 56.2784 33.5456 57.0276 32.6642 57.0276C31.4302 57.0276 30.4606 55.9037 30.4606 54.7138C30.4606 53.4357 31.4522 52.4 32.7303 52.4C33.4354 52.4 34.1185 52.7746 34.5152 53.3255L35.022 52.8407C34.4711 52.1356 33.5897 51.7389 32.7082 51.7389C31.0776 51.7389 29.7554 53.0831 29.7554 54.7138C29.7554 56.2784 31.0335 57.6666 32.6201 57.6666C34.2067 57.6666 35.3085 56.4767 35.3085 54.9121V54.6918H33.0388V54.7138ZM39.1868 55.1105V57.5785H39.892V55.1105L41.743 51.9152H40.9277L39.5394 54.3392L38.1291 51.9152H37.3138L39.1868 55.1105ZM46.6129 57.5785H47.7588C49.5437 57.5785 50.9761 56.653 50.9761 54.7138C50.9761 52.8187 49.5217 51.8932 47.7808 51.8932H46.6129V57.5785ZM47.3181 52.5543H47.5605C49.0149 52.5543 50.2489 53.0831 50.2489 54.7579C50.2489 56.4106 48.9928 56.9394 47.5605 56.9394H47.3181V52.5543ZM55.4053 55.1105C56.2206 55.0223 56.7715 54.3392 56.7715 53.5239C56.7715 52.973 56.5071 52.4441 56.0223 52.1576C55.5816 51.8932 55.0307 51.8932 54.5238 51.8932H53.6644V57.5785H54.3696V55.1766H54.6561L56.3308 57.5785H57.1902L55.4053 55.1105ZM54.3696 52.5322H54.5679C55.2731 52.5322 56.1104 52.6645 56.1104 53.5459C56.1104 54.4494 55.3171 54.5816 54.612 54.5816H54.3916V52.5322H54.3696ZM59.4158 51.9152H60.121V57.6005H59.4158V51.9152ZM62.9636 57.5785H63.6688V53.3476L67.9217 57.8209V51.9152H67.2166V56.1021L62.9636 51.6288V57.5785ZM71.4915 54.3612V51.9152H70.7864V57.5785H71.4915V55.2206L71.778 54.9342L73.9155 57.5785H74.863L72.2628 54.4494L74.819 51.9152H73.8935L71.4915 54.3612ZM82.1349 9.4299C82.5316 9.4299 82.8621 9.56211 83.1265 9.84858C83.391 10.113 83.5452 10.4656 83.5452 10.8402C83.5452 11.2368 83.413 11.5674 83.1265 11.8318C82.8621 12.1183 82.5095 12.2505 82.1349 12.2505C81.7383 12.2505 81.4077 12.1183 81.1213 11.8318C80.8568 11.5674 80.7026 11.2148 80.7026 10.8402C80.7026 10.4435 80.8348 10.113 81.1213 9.84858C81.4077 9.58415 81.7383 9.4299 82.1349 9.4299ZM83.7876 10.8402C83.7876 10.3995 83.6334 10.0028 83.3028 9.67229C82.9723 9.36379 82.5977 9.1875 82.1349 9.1875C81.6722 9.1875 81.2975 9.34175 80.967 9.67229C80.6365 10.0028 80.4822 10.3774 80.4822 10.8402C80.4822 11.303 80.6365 11.6776 80.967 12.0081C81.2975 12.3386 81.6722 12.4929 82.1349 12.4929C82.5977 12.4929 82.9723 12.3386 83.3028 12.0081C83.6113 11.6996 83.7876 11.303 83.7876 10.8402ZM82.5756 10.4876C82.5756 10.6198 82.5095 10.73 82.3773 10.7741C82.3112 10.7961 82.201 10.8182 82.0688 10.8182H81.7823V10.1571H82.0468C82.223 10.1571 82.3553 10.1791 82.4434 10.2232C82.5316 10.2893 82.5756 10.3554 82.5756 10.4876ZM81.4738 9.93672V11.7437H81.7823V11.0385H82.0247C82.201 11.0385 82.3112 11.0606 82.3773 11.1046C82.4875 11.1707 82.5536 11.303 82.5536 11.5233V11.7437H82.8621L82.8401 11.7216C82.8401 11.6996 82.818 11.6776 82.818 11.6335V11.3691C82.818 11.2809 82.7739 11.1928 82.7299 11.0826C82.6638 10.9944 82.5536 10.9283 82.4214 10.9063C82.5316 10.8843 82.6197 10.8622 82.6858 10.8182C82.796 10.7521 82.8621 10.6198 82.8621 10.4656C82.8621 10.2452 82.774 10.091 82.5756 10.0028C82.4654 9.95876 82.3112 9.93672 82.0688 9.93672H81.4738Z" fill="#E21B4D"/>
</g>
<defs>
<clipPath id="clip0_7177_26053">
<rect width="83.7929" height="48.6334" fill="white" transform="translate(0 9.17969)"/>
</clipPath>
</defs>
</svg>
