<svg width="128" height="67" viewBox="0 0 128 67" fill="none" xmlns="http://www.w3.org/2000/svg">
<g clip-path="url(#clip0_7177_25918)">
<path d="M0.492188 24.5H8.01744L12.3993 35.7106L16.838 24.5H24.1651L13.1322 51.039H5.75867L8.77876 44.0066L0.492188 24.5Z" fill="#5F01D1"/>
<path d="M31.7987 24.0547C26.1447 24.0547 22.5703 29.1255 22.5703 34.1752C22.5703 39.8577 26.4891 44.3628 31.6915 44.3628C35.5722 44.3628 37.0354 41.9984 37.0354 41.9984V43.8403H43.5989V24.5011H37.0354V26.2592C37.0354 26.2592 35.403 24.0547 31.7987 24.0547ZM33.1948 30.2695C35.8037 30.2695 37.1499 32.3338 37.1499 34.1965C37.1499 36.2022 35.7076 38.1706 33.1948 38.1706C31.1122 38.1706 29.2303 36.4686 29.2303 34.2819C29.2303 32.0641 30.7441 30.2695 33.1948 30.2695Z" fill="#5F01D1"/>
<path d="M45.8594 43.8395V15.9609H52.7244V26.3255C52.7244 26.3255 54.355 24.0564 57.77 24.0564C61.9474 24.0564 64.3948 27.1689 64.3948 31.6165V43.8395H57.5801V33.2908C57.5801 31.7857 56.8631 30.3317 55.2391 30.3317C53.5859 30.3317 52.7244 31.8077 52.7244 33.2908V43.8395H45.8594Z" fill="#5F01D1"/>
<path d="M76.0961 24.0547C69.6212 24.0547 65.7656 28.9783 65.7656 34.2534C65.7656 40.2566 70.4338 44.3605 76.1207 44.3605C81.6326 44.3605 86.4558 40.4429 86.4558 34.3541C86.4558 27.692 81.4058 24.0547 76.0961 24.0547ZM76.158 30.3242C78.4452 30.3242 80.0277 32.2291 80.0277 34.2606C80.0277 35.9933 78.5531 38.1303 76.158 38.1303C73.9633 38.1303 72.3164 36.3699 72.3164 34.2416C72.3164 32.1914 73.6857 30.3242 76.158 30.3242Z" fill="#5F01D1"/>
<path d="M97.893 24.0547C91.418 24.0547 87.5625 28.9783 87.5625 34.2534C87.5625 40.2566 92.2307 44.3605 97.9175 44.3605C103.429 44.3605 108.253 40.4429 108.253 34.3541C108.253 27.692 103.203 24.0547 97.893 24.0547ZM97.9548 30.3242C100.242 30.3242 101.825 32.2291 101.825 34.2606C101.825 35.9933 100.35 38.1303 97.9548 38.1303C95.7602 38.1303 94.1132 36.3699 94.1132 34.2416C94.1132 32.1914 95.4825 30.3242 97.9548 30.3242Z" fill="#5F01D1"/>
<path d="M113.668 44.25C116.186 44.25 118.227 42.2091 118.227 39.6914C118.227 37.1738 116.186 35.1328 113.668 35.1328C111.15 35.1328 109.109 37.1738 109.109 39.6914C109.109 42.2091 111.15 44.25 113.668 44.25Z" fill="#5F01D1"/>
<path d="M119.73 33.4583H111.523L118.807 15.9609H126.983L119.73 33.4583Z" fill="#5F01D1"/>
</g>
<defs>
<clipPath id="clip0_7177_25918">
<rect width="127" height="67" fill="white" transform="translate(0.492188)"/>
</clipPath>
</defs>
</svg>
